<svg xmlns="http://www.w3.org/2000/svg" width="30.923" height="30.923" viewBox="0 0 30.923 30.923"><defs><style>.a{fill:#fff;}</style></defs><path class="a" d="M1835.315-328.134a15.462,15.462,0,0,0-15.462,15.462,15.462,15.462,0,0,0,15.462,15.462,15.462,15.462,0,0,0,15.462-15.462A15.462,15.462,0,0,0,1835.315-328.134Zm8.17,16.523a.817.817,0,0,1-1.01-.134c-.18-.165-.363-.326-.638-.573v.574q0,3.141,0,6.282c0,.6-.108.7-.717.7q-1.707,0-3.415,0c-.514,0-.672-.152-.676-.681-.009-1.18.019-2.362-.018-3.541a1.68,1.68,0,0,0-2.372-1.464,1.7,1.7,0,0,0-1.029,1.652c0,1.1,0,2.192,0,3.288,0,.605-.143.745-.744.746q-1.644,0-3.288,0c-.633,0-.772-.131-.773-.761q-.005-3.12,0-6.24v-.557c-.239.222-.387.365-.54.5a.883.883,0,0,1-1.31.045c-.345-.362-.3-.828.144-1.257q2.643-2.543,5.3-5.075,1.111-1.064,2.223-2.128a.89.89,0,0,1,1.429,0q3.733,3.568,7.461,7.141C1844.051-312.559,1844.041-311.906,1843.484-311.611Z" transform="translate(-1819.853 328.134)"/></svg>