<svg xmlns="http://www.w3.org/2000/svg" width="31" height="31" viewBox="0 0 31 31"><defs><style>.a{fill:#fff;}</style></defs><g transform="translate(-47 -89.039)"><path class="a" d="M1133.541,920.538a.518.518,0,0,0,.179-.233l.4-1.169h2.549l.4,1.169a.487.487,0,0,0,.182.242.555.555,0,0,0,.333.094h1.206l-2.595-6.7h-1.592l-2.595,6.7h1.215A.518.518,0,0,0,1133.541,920.538Zm1.55-4.286q.069-.175.147-.414t.152-.52q.078.276.159.513t.14.412l.616,1.836h-1.831Z" transform="translate(-1076.497 -813.711)"/><path class="a" d="M1201.164,905.974l-7,4.039,7,4.039Zm-1.259,5.733-3.145-1.688,3.145-1.664Z" transform="translate(-1131.973 -806.604)"/><path class="a" d="M1068.5,810a15.5,15.5,0,1,0,15.5,15.5A15.5,15.5,0,0,0,1068.5,810Zm9.453,22.121h-.555c-2.413,0-4.826,0-7.239.006a.827.827,0,0,0-.459.153c-1.634,1.213-3.26,2.437-4.889,3.657-.083.062-.17.12-.288.2v-4.01h-5.373v-14.8h18.8Z" transform="translate(-1006 -720.961)"/></g></svg>