<svg xmlns="http://www.w3.org/2000/svg" width="31.967" height="31.968" viewBox="0 0 31.967 31.968"><defs><style>.a{fill:#fff;}</style></defs><path class="a" d="M7063.9,497.994a15.984,15.984,0,1,0,15.984,15.984A15.984,15.984,0,0,0,7063.9,497.994Zm8.128,11.4a45.6,45.6,0,0,1-6.254-1.491,13.15,13.15,0,0,1,5.14-.91,2.255,2.255,0,0,1,1.908,1.818h0C7072.91,509.236,7072.477,509.47,7072.025,509.4Zm-2.272-6.122.812-.325a1.469,1.469,0,1,1,.743,2.821c-1.91.248-4.331.764-4.331.764l1.074-1.805A3.488,3.488,0,0,1,7069.753,503.273Zm-5.231-.051a1.154,1.154,0,0,1,1.695-.016l.474.506a1.149,1.149,0,0,1-.04,1.615c-.59.567-1.537,1.457-2.951,2.729a7.908,7.908,0,0,0-2.365,6.263l-1.419-1.865a2.189,2.189,0,0,1-.4-1.791,8.006,8.006,0,0,1,.74-2.083A23.071,23.071,0,0,1,7064.522,503.221Zm-3.062.437a.552.552,0,0,1,.368.925,19.006,19.006,0,0,0-3.369,5.606,22.415,22.415,0,0,1,.947-5.118A2.006,2.006,0,0,1,7061.46,503.659Zm-5.784.485a1.469,1.469,0,1,1,2.894.359c-.479,1.865-.9,4.3-.9,4.3l-1.276-1.669a3.5,3.5,0,0,1-.718-2.121Zm0,3.586s2.877,4.639,4.894,7.144a4.763,4.763,0,0,0,5.126,1.392s-.047,1.345-2.288,1.716c-3.725.418-6.666-3.433-6.666-3.433a11.884,11.884,0,0,1-2.412-4.361C7053.635,507.684,7055.676,507.731,7055.676,507.731Zm-5.692,2.278a1.152,1.152,0,0,1,.551-1.6l.635-.278a1.15,1.15,0,0,1,1.509.578c.337.745.726,2,1.584,3.693a11.033,11.033,0,0,0,3.687,4.558,7.427,7.427,0,0,1-4.222-2.29C7051.659,512.481,7050.935,511.8,7049.983,510.009Zm5.877,7.676a44.869,44.869,0,0,1,6.314,1.705,12.322,12.322,0,0,1-5.149.874c-.933-.02-1.76-1.06-1.953-1.973C7054.975,517.837,7055.406,517.6,7055.86,517.685Zm2.538,5.977-.811.325a1.47,1.47,0,0,1-1.911-.819h0a1.467,1.467,0,0,1,1.169-2c1.91-.248,4.33-.764,4.33-.764l-1.075,1.805A3.492,3.492,0,0,1,7058.4,523.662Zm4.638,1.03a1.153,1.153,0,0,1-1.687-.157l-.42-.552a1.149,1.149,0,0,1,.2-1.6c.645-.5,1.677-1.292,3.213-2.414a7.9,7.9,0,0,0,2.993-5.988l1.222,2a2.195,2.195,0,0,1,.212,1.823,8.034,8.034,0,0,1-.949,2A23.087,23.087,0,0,1,7063.036,524.691Zm3.092-.122a.552.552,0,0,1-.272-.958,18.986,18.986,0,0,0,3.924-5.233,22.326,22.326,0,0,1-1.464,4.995A2.006,2.006,0,0,1,7066.128,524.569Zm5.892-.762-.088.869a1.471,1.471,0,0,1-1.613,1.312h0a1.467,1.467,0,0,1-1.229-1.965c.667-1.806,1.334-4.19,1.334-4.19l1.1,1.79A3.5,3.5,0,0,1,7072.02,523.807Zm-.073-4.124s-2.621-4.788-4.5-7.4a4.76,4.76,0,0,0-5.042-1.667s.119-1.341,2.377-1.59c3.741-.215,6.47,3.789,6.47,3.789a11.873,11.873,0,0,1,2.173,4.485C7073.982,519.84,7071.947,519.683,7071.947,519.683Zm5.248-1.359-.636.278a1.148,1.148,0,0,1-1.508-.578c-.338-.745-.728-2-1.586-3.693a11.034,11.034,0,0,0-3.687-4.559,7.423,7.423,0,0,1,4.22,2.29c2.071,2.188,2.794,2.873,3.748,4.66A1.153,1.153,0,0,1,7077.195,518.324Z" transform="translate(-7047.914 -497.994)"/></svg>