<svg xmlns="http://www.w3.org/2000/svg" width="31.043" height="31.043" viewBox="0 0 31.043 31.043"><defs><style>.a{fill:#c46257;}</style></defs><g transform="translate(-4773 -1309)"><circle class="a" cx="5.174" cy="5.174" r="5.174" transform="translate(4783.349 1317.041)"/><path class="a" d="M4788.521,1309a15.522,15.522,0,1,0,15.522,15.522A15.521,15.521,0,0,0,4788.521,1309Zm7.158,18.763a30.356,30.356,0,0,1-4.695,5.094c-.673.63-1.36,1.244-2.027,1.881a.535.535,0,0,1-.857.015c-1.974-1.96-4.009-3.863-5.9-5.9a9.011,9.011,0,0,1-2.4-5.006c-.048-.361-.056-.728-.069-.918a8.795,8.795,0,0,1,17.49-1.389A8.542,8.542,0,0,1,4795.679,1327.763Z" transform="translate(0 0)"/></g></svg>