<svg id="Layer_1" data-name="Layer 1" xmlns="http://www.w3.org/2000/svg" width="142.9089" height="142.9089" viewBox="0 0 142.9089 142.9089"><title>event_art_icon</title><path id="artist_icon" data-name="artist icon" d="M71.4131,4.7643a66.41,66.41,0,1,0,66.41,66.41h0A66.41,66.41,0,0,0,71.4131,4.7643ZM20.6017,44.7906a2.1392,2.1392,0,0,1,2.914-2.8149A27.808,27.808,0,0,0,52.8633,39.46a24.3588,24.3588,0,0,1,34.1,4.894q.6737.8968,1.26,1.8526a2.7467,2.7467,0,0,1-3.4864,3.9359A28.7749,28.7749,0,0,0,55.2635,51.426C40.7182,61.8177,27.08,57.7792,20.6017,44.7906Zm82.227,24.0133c-9.92-1.42-24.8125-1.4246-24.8125,11.3457v4.86a2.3146,2.3146,0,0,1-2.31,2.3187H71.9541A2.3143,2.3143,0,0,1,69.64,85.0139V80.15c0-12.4836-15.2681-12.7574-25.89-11.4355a1.0226,1.0226,0,0,1-.4533-1.9808,89.5082,89.5082,0,0,1,60.0906.1155,1.0226,1.0226,0,0,1-.5578,1.9551ZM102.67,81.3432H85.63a1.4425,1.4425,0,0,1-1.1071-2.3658c3.29-3.9231,10.8583-10.37,19.2517,0a1.45,1.45,0,0,1-1.1051,2.3658Zm-41.8018,0H43.6657a1.4027,1.4027,0,0,1-1.0821-2.3016c3.2692-3.923,10.8918-10.5242,19.3666,0a1.4071,1.4071,0,0,1-1.0821,2.3016Zm3.9648,19.1448a8.3745,8.3745,0,1,1,0,.0043ZM75.85,118.3107a1.0654,1.0654,0,0,1-.1838-2.1049,37.6968,37.6968,0,0,0,28.7271-22.37,1.0653,1.0653,0,0,1,2.0493.5134C104.98,104.625,98.91,119.4958,75.85,118.3107Zm49.1988-60.784C110.8231,63.6059,99.44,54.0185,92.3422,41.8558A33.8553,33.8553,0,0,0,76.765,28.4182a2.0492,2.0492,0,0,1,.9463-3.9146c10.8917.65,18.1487,5.5616,25.4036,17.3522A25.0016,25.0016,0,0,0,124.3135,53.287a2.2034,2.2034,0,0,1,.7478,4.2441Z" fill="#b45339"/></svg>