<svg id="Layer_1" data-name="Layer 1" xmlns="http://www.w3.org/2000/svg" width="142.9089" height="142.9089" viewBox="0 0 142.9089 142.9089"><title>community_icon</title><path id="community_icon" data-name="community icon" d="M71.035,4.6471A66.1487,66.1487,0,0,0,4.886,70.7958h0a66.1489,66.1489,0,0,0,66.149,66.1488h0A66.1487,66.1487,0,0,0,137.1839,70.796h0A66.1489,66.1489,0,0,0,71.035,4.6471ZM105.9877,75.335a3.4951,3.4951,0,0,1-4.321-.5732c-.77-.706-1.5531-1.3947-2.7292-2.4514v29.3311c0,2.5669-.4622,2.9947-3.0676,2.9947H81.26c-2.1991,0-2.8749-.65-2.8921-2.9134-.0387-5.0482.0814-10.105-.0768-15.1489a7.1873,7.1873,0,0,0-10.1476-6.2631,7.2724,7.2724,0,0,0-4.4024,7.0675v14.0666c0,2.5883-.6115,3.1872-3.183,3.1915H46.4915c-2.7084,0-3.3027-.56-3.3068-3.2556q-.0211-13.3477,0-26.6957V72.3022c-1.0226.95-1.6555,1.5614-2.31,2.139a3.7774,3.7774,0,0,1-5.3226.4557,3.7141,3.7141,0,0,1-.282-.2631c-1.4759-1.5487-1.2837-3.5423.6162-5.3776Q47.1928,58.377,58.56,47.5445q4.7526-4.5521,9.5105-9.1038a3.8074,3.8074,0,0,1,6.1132,0q15.97,15.2644,31.92,30.55c2.3057,2.2885,2.2628,5.082-.12,6.3441Z" fill="#6d4264"/></svg>