<svg id="Layer_1" data-name="Layer 1" xmlns="http://www.w3.org/2000/svg" width="142.9089" height="142.9089" viewBox="0 0 142.9089 142.9089"><title>event_icon</title><g id="event_icon" data-name="event icon"><path id="Path_1495" data-name="Path 1495" d="M106.853,81.57V50.6H35.9815v51.7655c0,2.1046,1.4247,1.96,2.8326,1.96,22.0791,0,43.1367-.03,65.221.0386,2.3448,0,2.8963-.89,2.8618-3.0373C106.7893,94.58,106.853,88.3293,106.853,81.57ZM84.1786,79.4737A4.7858,4.7858,0,0,0,82.801,84.09c.5305,3.5423.9755,7.0977,1.5186,11.1231-3.91-1.8185-7.3374-3.5679-10.897-4.9842a5.9548,5.9548,0,0,0-4.0347,0c-3.5554,1.4163-6.9782,3.17-10.8448,4.98.5087-3.7821.8815-7.2257,1.4633-10.6312a5.5319,5.5319,0,0,0-1.7108-5.5059c-2.5151-2.383-4.7785-5.0312-7.4481-7.88,3.8969-.71,7.2987-1.4116,10.734-1.925a5.33,5.33,0,0,0,4.4661-3.2431c1.5406-3.1914,3.4228-6.2292,5.36-9.7412,2.0367,3.6791,3.7089,7.02,5.7111,10.1522a6.3582,6.3582,0,0,0,3.4228,2.52c3.594.9369,7.2726,1.48,11.3753,2.2634-2.7491,2.9563-5.1409,5.72-7.751,8.257Z" fill="#d0a865"/><path id="Path_1496" data-name="Path 1496" d="M71.4131,4.9911A66.183,66.183,0,1,0,137.596,71.174h0A66.1833,66.1833,0,0,0,71.4131,4.9911Zm41.0707,99.0822a5.2026,5.2026,0,0,1-5.801,5.9122q-35.29.0345-70.5895,0a5.2016,5.2016,0,0,1-5.7927-5.9211q-.03-32.5953,0-65.1906c0-4.0129,1.96-5.8867,6.0413-5.9337,2.0492-.0214,4.1068-.0256,6.1561-.0553.1493,0,.3-.1368.4282-.2094.5557-5.014.5557-5.014,6.9175-4.873,2.9559.0642,3.3925.6418,3.6578,4.967H89.01c.9494-5.1336.9494-5.1336,7.1483-4.967,2.8326.0815,3.1533.505,3.6536,5.1336h6.58c4.0766.0386,6.0413,1.9249,6.0454,5.9425q.0894,32.5953.0627,65.1943Z" fill="#d0a865"/></g></svg>