<svg id="Layer_1" data-name="Layer 1" xmlns="http://www.w3.org/2000/svg" width="142.9089" height="142.9089" viewBox="0 0 142.9089 142.9089"><title>event_icon</title><g id="event_icon-2" data-name="event icon-2"><path id="Path_1503" data-name="Path 1503" d="M52.6074,79.5121l-12.5859,1.985L29.7544,89.2235l12.68-2.0278Z" fill="#da531e"/><path id="Path_1504" data-name="Path 1504" d="M52.4842,63.7941,42.217,56.26l-12.7112-1.84L39.88,61.9931Z" fill="#da531e"/><path id="Path_1505" data-name="Path 1505" d="M63.4239,52.6968,61.4353,40.11l-7.727-10.2676,2.0325,12.68Z" fill="#da531e"/><path id="Path_1506" data-name="Path 1506" d="M50.9738,71.5119,38.6052,68.4146,26.1468,71.5119l12.4584,3.0974Z" fill="#da531e"/><path id="Path_1507" data-name="Path 1507" d="M56.967,57.0562,50.4182,46.1255,39.4157,39.5031l6.622,10.999Z" fill="#da531e"/><path id="Path_1508" data-name="Path 1508" d="M91.8524,71.5119l12.4584,3.0974,12.3645-3.0974-12.3645-3.0973Z" fill="#da531e"/><path id="Path_1509" data-name="Path 1509" d="M74.5079,38.6043,71.41,26.2448l-3.0979,12.36L71.41,51.0667Z" fill="#da531e"/><path id="Path_1510" data-name="Path 1510" d="M90.2251,63.5118l12.68-2.0278,10.1607-7.7007-12.59,1.9851Z" fill="#da531e"/><path id="Path_1511" data-name="Path 1511" d="M96.8742,50.4335l6.5551-10.9307-10.9356,6.55-6.622,10.9991Z" fill="#da531e"/><path id="Path_1512" data-name="Path 1512" d="M88.5017,29.5947l-7.5724,10.37L79.1286,52.577l7.5348-10.2677Z" fill="#da531e"/><path id="Path_1513" data-name="Path 1513" d="M90.3462,79.23,100.72,86.8022l12.6068,1.8012L103.06,81.07Z" fill="#da531e"/><path id="Path_1514" data-name="Path 1514" d="M79.4106,90.3273l2.0242,12.68,7.7,10.1648L87.15,100.5861Z" fill="#da531e"/><path id="Path_1515" data-name="Path 1515" d="M85.8759,85.9635l6.6219,10.9991,10.9357,6.55L96.8784,92.5818Z" fill="#da531e"/><path id="Path_1516" data-name="Path 1516" d="M71.4141,5.3546a65.8195,65.8195,0,1,0,65.8184,65.8205V71.174A65.82,65.82,0,0,0,71.4141,5.3546Zm35.7565,85.6273a41.0494,41.0494,0,0,1-3.7768,5.6386l8.27,14.8067-14.8023-8.2741a41.1254,41.1254,0,0,1-5.6338,3.7776l1.9761,16.8346L82.6965,110.4644a40.65,40.65,0,0,1-6.6574,1.3221l-4.625,16.3125-4.6207-16.3125a40.62,40.62,0,0,1-6.6575-1.3221L49.6286,123.7653l1.9719-16.8346a40.8321,40.8321,0,0,1-5.638-3.7776L31.16,111.4272l8.27-14.8067a41.041,41.041,0,0,1-3.7769-5.6386L18.8188,92.9541,32.1149,82.447A40.79,40.79,0,0,1,30.7926,75.79L14.48,71.174l16.3126-4.62a40.7936,40.7936,0,0,1,1.3223-6.657L18.8188,49.39l16.8347,1.9764A41.0532,41.0532,0,0,1,39.43,45.7273L31.16,30.9248l14.8023,8.27a41.0306,41.0306,0,0,1,5.638-3.7776l-1.9719-16.83L60.1359,31.8873a40.7038,40.7038,0,0,1,6.6575-1.322l4.6207-16.3126,4.625,16.3126a40.787,40.787,0,0,1,6.6574,1.322L93.2039,18.5865l-1.9761,16.83a41.3085,41.3085,0,0,1,5.6338,3.7776l14.8023-8.27-8.27,14.8025a41.1164,41.1164,0,0,1,3.7768,5.6386L124.0012,49.39,110.7051,59.8966a40.1368,40.1368,0,0,1,1.3181,6.657l16.3167,4.62L112.0232,75.79a40.1377,40.1377,0,0,1-1.3181,6.6569l13.2961,10.5071Z" fill="#da531e"/><path id="Path_1517" data-name="Path 1517" d="M82.966,71.17a11.5506,11.5506,0,1,0,0,.0008Z" fill="#da531e"/><path id="Path_1518" data-name="Path 1518" d="M54.3245,113.4294l7.5348-10.2676,1.8446-12.71-7.5766,10.37Z" fill="#da531e"/><path id="Path_1519" data-name="Path 1519" d="M46.0272,92.5178l-6.6219,10.9991,11.0024-6.6225,6.5489-10.9306Z" fill="#da531e"/><path id="Path_1520" data-name="Path 1520" d="M68.3162,104.3169l3.0979,12.4624,3.0979-12.4624L71.4141,91.9575Z" fill="#da531e"/></g></svg>