<?xml version="1.0" encoding="utf-8"?>
<!-- Generator: Adobe Illustrator 23.0.3, SVG Export Plug-In . SVG Version: 6.00 Build 0)  -->
<svg version="1.1" id="Layer_1" xmlns="http://www.w3.org/2000/svg" xmlns:xlink="http://www.w3.org/1999/xlink" x="0px" y="0px"
	 viewBox="0 0 40 40" style="enable-background:new 0 0 40 40;" xml:space="preserve">
<path d="M39.7,20C39.7,20,39.7,20,39.7,20C39.7,20,39.7,20,39.7,20c0-2.4-1.5-4.5-3.7-5.3c-0.6-0.2-1.3-0.4-2-0.3
	c-1.2-3-3.4-5.6-6.3-7.3c-0.6-0.4-1.3-0.7-2-1c0,0,0,0,0,0c0,0,0,0,0,0c0,0,0,0,0,0c0,0,0,0,0-0.1c0-2.3-1.5-4.4-3.6-5.2
	C20.1,0,17.5,0.6,16,2.2c-1,1.1-1.5,2.5-1.5,3.8c-3,1.2-5.6,3.4-7.3,6.3c-0.4,0.6-0.7,1.3-1,2c-1.7,0-3.4,0.8-4.4,2.1
	c-0.7,0.9-1.2,2-1.3,3.2c-0.1,1.1,0.2,2.3,0.8,3.2c1,1.7,2.9,2.7,4.9,2.7c1.2,3,3.4,5.6,6.3,7.3c0.6,0.4,1.3,0.7,2,1
	c0,1.1,0.3,2.3,0.9,3.2c1.3,2,3.7,2.9,6,2.4c2.5-0.6,4.4-2.9,4.4-5.5c0,0,0,0,0-0.1c3-1.2,5.6-3.4,7.3-6.3c0.4-0.6,0.7-1.3,1-2
	c0.4,0,0.9,0,1.3-0.1C37.9,24.9,39.7,22.6,39.7,20C39.7,20,39.7,20,39.7,20C39.7,20,39.7,20,39.7,20z M31.6,26.5
	c-0.2,0.3-0.4,0.7-0.6,1c-0.1,0.2-0.2,0.3-0.3,0.5c0,0-0.1,0.1-0.1,0.1c0,0,0.1-0.2,0,0c-0.1,0.1-0.1,0.2-0.2,0.3
	c-0.5,0.6-1.1,1.2-1.7,1.7c-0.1,0.1-0.3,0.2-0.4,0.4c0,0,0,0-0.1,0.1c0,0,0,0,0,0c0,0,0,0,0,0c-0.1,0.1-0.2,0.1-0.3,0.2
	c-0.3,0.2-0.7,0.4-1,0.7c-0.4,0.2-0.8,0.4-1.2,0.6c-0.1,0-0.2,0.1-0.3,0.1c-0.6-1.6-1.9-2.9-3.5-3.4c-2.2-0.7-4.7,0-6.2,1.8
	c-0.4,0.5-0.7,1-0.9,1.6c0,0,0,0-0.1,0c-0.4-0.2-0.7-0.4-1.1-0.6c-0.3-0.2-0.7-0.4-1-0.6c-0.2-0.1-0.3-0.2-0.5-0.3
	c0,0-0.1-0.1-0.1-0.1c0,0,0.2,0.1,0,0c-0.1-0.1-0.2-0.1-0.3-0.2c-0.6-0.5-1.2-1.1-1.7-1.7c-0.1-0.1-0.2-0.3-0.4-0.4c0,0,0,0-0.1-0.1
	c0,0,0,0,0,0c0,0,0,0,0,0c-0.1-0.1-0.1-0.2-0.2-0.3c-0.2-0.3-0.4-0.7-0.7-1c-0.2-0.4-0.4-0.8-0.6-1.2c0-0.1-0.1-0.2-0.1-0.2
	c2.2-0.8,3.7-3,3.7-5.3c0,0,0,0,0,0c0,0,0,0,0,0c0,0,0,0,0,0c0,0,0,0,0,0c0-2.4-1.5-4.4-3.7-5.3c0,0,0,0,0-0.1
	c0.2-0.4,0.4-0.7,0.6-1.1c0.2-0.3,0.4-0.7,0.6-1c0.1-0.2,0.2-0.3,0.3-0.5c0,0,0.1-0.1,0.1-0.1c0,0-0.1,0.2,0,0
	c0.1-0.1,0.1-0.2,0.2-0.3c0.5-0.6,1.1-1.2,1.7-1.7c0.1-0.1,0.3-0.2,0.4-0.4c0,0,0,0,0.1-0.1c-0.1,0.1,0,0,0,0
	c0.1-0.1,0.2-0.1,0.3-0.2c0.3-0.2,0.7-0.4,1-0.7c0.4-0.2,0.8-0.4,1.2-0.6c0.1,0,0.2-0.1,0.2-0.1c0.1,0.3,0.2,0.6,0.4,0.8
	c0.5,1,1.4,1.8,2.4,2.3c1.1,0.6,2.3,0.7,3.5,0.5c1.2-0.2,2.4-0.9,3.2-1.8c0.5-0.6,0.9-1.2,1.1-1.9c0,0,0,0,0.1,0
	c0.4,0.2,0.7,0.4,1.1,0.6c0.3,0.2,0.7,0.4,1,0.6c0.2,0.1,0.3,0.2,0.5,0.3c0,0,0.1,0.1,0.1,0.1c0,0-0.2-0.1,0,0
	c0.1,0.1,0.2,0.1,0.3,0.2c0.6,0.5,1.2,1.1,1.7,1.7c0.1,0.1,0.2,0.3,0.4,0.4c0,0,0,0,0.1,0.1c0,0,0,0,0,0c0,0,0,0,0,0
	c0.1,0.1,0.1,0.2,0.2,0.3c0.2,0.3,0.4,0.7,0.7,1c0.2,0.4,0.4,0.8,0.6,1.2c0,0.1,0.1,0.2,0.1,0.2c-0.9,0.3-1.8,0.9-2.4,1.7
	c-0.8,0.9-1.2,2.1-1.3,3.3c-0.1,1.1,0.2,2.3,0.8,3.3c0.7,1.1,1.7,1.9,2.9,2.4c0,0,0,0,0,0.1C32,25.7,31.8,26.1,31.6,26.5z"/>
</svg>
