<svg id="Layer_1" data-name="Layer 1" xmlns="http://www.w3.org/2000/svg" width="142.9089" height="142.9089" viewBox="0 0 142.9089 142.9089"><title>event_icon</title><path id="organization_icon" data-name="organization icon" d="M71.4131,2.7921a68.382,68.382,0,1,0,68.3815,68.3824v0A68.382,68.382,0,0,0,71.4131,2.7921ZM106.1856,51.563a195.057,195.057,0,0,1-26.7551-6.3787,56.2582,56.2582,0,0,1,21.99-3.8932,9.6461,9.6461,0,0,1,8.1635,7.7777h0c.3761,1.8183-1.4768,2.8194-3.4112,2.52Zm-9.72-26.1909,3.4739-1.39A6.2846,6.2846,0,1,1,103.1191,36.05c-8.172,1.0609-18.529,3.2685-18.529,3.2685l4.5957-7.722a14.9188,14.9188,0,0,1,7.2675-6.22Zm-22.3789-.2182a4.936,4.936,0,0,1,6.9729-.34c.0961.0869.19.1776.2779.2718L83.366,27.25a4.915,4.915,0,0,1-.1713,6.9092c-2.5234,2.4256-6.576,6.2333-12.6255,11.6751A33.8323,33.8323,0,0,0,60.45,72.6287L54.38,64.65a9.3687,9.3687,0,0,1-1.7109-7.6622,34.2906,34.2906,0,0,1,3.1669-8.9114A98.6784,98.6784,0,0,1,74.0744,25.1541Zm-13.1,1.87a2.3614,2.3614,0,0,1,1.5751,3.9573A81.3048,81.3048,0,0,0,48.1486,54.964a95.8951,95.8951,0,0,1,4.05-21.8956,8.5811,8.5811,0,0,1,8.7757-6.0406ZM36.2416,29.0984a6.2846,6.2846,0,1,1,12.3811,1.5359c-2.0492,7.9787-3.85,18.396-3.85,18.396l-5.4584-7.14a14.9776,14.9776,0,0,1-3.0707-9.074Zm0,15.3414S48.55,64.2862,57.1791,75.003a20.376,20.376,0,0,0,21.93,5.9553S78.9082,86.7123,69.32,88.3C53.3834,90.088,40.8017,73.6128,40.8017,73.6128a50.855,50.855,0,0,1-10.3193-18.657c-2.9851-10.7084,5.7467-10.5074,5.7467-10.5074ZM11.8908,54.1855a4.9281,4.9281,0,0,1,2.0075-6.6747c.1128-.0613.23-.1181.3488-.17l2.7156-1.1894a4.92,4.92,0,0,1,6.4549,2.4727c1.4413,3.1873,3.1062,8.5564,6.7765,15.7992a47.1953,47.1953,0,0,0,15.7736,19.5,31.7735,31.7735,0,0,1-18.0631-9.7969c-8.8592-9.3561-11.9571-12.27-16.03-19.9318ZM37.0333,87.0246a191.959,191.959,0,0,1,27.0121,7.2943,52.7152,52.7152,0,0,1-22.0279,3.7392c-3.992-.0856-7.5285-4.5348-8.3558-8.4409-.43-1.9338,1.4122-2.9477,3.3549-2.584Zm10.8583,25.57-3.47,1.39a6.29,6.29,0,0,1-8.1761-3.5018v-.0018h0a6.276,6.276,0,0,1,5.0009-8.5563c8.1719-1.061,18.5247-3.2685,18.5247-3.2685l-4.6,7.7221a14.9355,14.9355,0,0,1-7.2883,6.2245Zm19.8429,4.4066a4.9333,4.9333,0,0,1-6.9666-.3689q-.1317-.1461-.2507-.3027l-1.7965-2.3615a4.9159,4.9159,0,0,1,.8565-6.845c2.7594-2.139,7.1734-5.5273,13.7452-10.3274A33.7989,33.7989,0,0,0,86.1276,71.1787l5.2286,8.5563a9.3864,9.3864,0,0,1,.9066,7.7991A34.3732,34.3732,0,0,1,88.2019,96.09a98.7557,98.7557,0,0,1-20.4841,20.9155Zm13.2272-.522a2.3623,2.3623,0,0,1-1.1636-4.0985A81.2641,81.2641,0,0,0,96.5849,89.9938a95.4812,95.4812,0,0,1-6.2627,21.3693,8.5813,8.5813,0,0,1-9.3773,5.1208Zm25.2072-3.26-.376,3.7178a6.2927,6.2927,0,0,1-6.9,5.613h0a6.2733,6.2733,0,0,1-5.2578-8.4067c2.8535-7.7265,5.707-17.9255,5.707-17.9255l4.7063,7.6578a14.9635,14.9635,0,0,1,2.1036,9.348Zm-.3133-17.6432S94.6421,75.0926,86.6039,63.918a20.3635,20.3635,0,0,0-21.57-7.1316s.51-5.737,10.1689-6.8023c16.0055-.92,27.6806,16.21,27.6806,16.21a50.8149,50.8149,0,0,1,9.2958,19.1875c2.3668,10.8714-6.34,10.2-6.34,10.2Zm22.4519-5.8141-2.7219,1.1894a4.9112,4.9112,0,0,1-6.4506-2.4728c-1.4456-3.1872-3.1146-8.5563-6.7849-15.7992a47.2067,47.2067,0,0,0-15.7736-19.504,31.7575,31.7575,0,0,1,18.0547,9.797c8.8592,9.36,11.953,12.2911,16.0347,19.9361a4.9333,4.9333,0,0,1-2.01,6.68c-.1191.0642-.24.1235-.3656.1776Z" fill="#a48116"/></svg>