<svg id="Layer_1" data-name="Layer 1" xmlns="http://www.w3.org/2000/svg" width="142.9089" height="142.9089" viewBox="0 0 142.9089 142.9089"><title>point_of_interest_icon</title><g id="poi_icon" data-name="poi icon"><circle id="Ellipse_22" data-name="Ellipse 22" cx="71.0441" cy="61.6122" r="22.1352" fill="#c46257"/><path id="Path_1497" data-name="Path 1497" d="M71.035,5.0763A66.4054,66.4054,0,1,0,137.44,71.4817h0A66.4018,66.4018,0,0,0,71.0433,5.0763ZM101.6589,85.347A129.8,129.8,0,0,1,81.5737,107.14c-2.8786,2.6953-5.8177,5.3221-8.6712,8.0472a2.2878,2.2878,0,0,1-3.194.5191,2.2419,2.2419,0,0,1-.4721-.4549c-8.4456-8.385-17.15-16.5267-25.2407-25.2412A38.5631,38.5631,0,0,1,33.7285,68.5937c-.2047-1.5442-.24-3.1146-.2945-3.9272A37.6264,37.6264,0,0,1,108.26,58.724,36.5494,36.5494,0,0,1,101.6589,85.347Z" fill="#c46257"/></g></svg>