<svg id="Layer_1" data-name="Layer 1" xmlns="http://www.w3.org/2000/svg" width="142.9089" height="142.9089" viewBox="0 0 142.9089 142.9089"><title>public_art_icon</title><path id="public_art_icon" data-name="public art icon" d="M71.4089,4.5075a66.6665,66.6665,0,1,0,.0084,0ZM48.4347,30.1081s7.2048-6.34,25.3661-7.491c0,0-23.064,6.0491-27.9584,20.7489Zm44.6721,0S72.209,32.4137,68.9649,46.8227A39.4587,39.4587,0,0,1,43.532,55.178S63.13,13.6843,93.1068,30.1081ZM104.6586,75.354S98.8869,96.3855,78.99,98.1224V75.354s6.1122,8.0727,25.6814-.0005ZM68.9565,53.7794a31.5862,31.5862,0,0,0,4.83,17.3993V98.1313S45.8277,101.0146,43.5215,60.522a31.7141,31.7141,0,0,0,25.4517-6.7431ZM43.2354,31.5332A86.2547,86.2547,0,0,0,45.8277,89.46H27.0983A54.1217,54.1217,0,0,1,43.25,31.5494ZM78.386,117.99c-11.813,1.4419-29.3956.5776-47.26-22.1908h21.326s19.0156,15.56,39.1969,3.17C91.6487,98.9862,90.2282,116.5652,78.386,117.99Zm13.2627-3.4566c6.6261-12.9671,4.8735-18.7342,4.8735-18.7342a88.97,88.97,0,0,0,15.7047-28.42,12.8978,12.8978,0,1,1,3.6786-10.6139c9.7031,42.9779-24.2568,57.8015-24.2568,57.8015Z" fill="#84815a"/></svg>