<svg xmlns="http://www.w3.org/2000/svg" width="51.25" height="51.251" viewBox="0 0 51.25 51.251"><defs><style>.a{fill:#c46257;}</style></defs><g transform="translate(-792 -1005.41)"><circle class="a" cx="8.541" cy="8.541" r="8.541" transform="translate(809.085 1018.685)"/><path class="a" d="M4798.625,1309a25.625,25.625,0,1,0,25.626,25.625A25.624,25.624,0,0,0,4798.625,1309Zm11.818,30.977a50.13,50.13,0,0,1-7.752,8.409c-1.11,1.04-2.245,2.054-3.347,3.1a.882.882,0,0,1-1.415.024c-3.259-3.236-6.619-6.378-9.745-9.738a14.884,14.884,0,0,1-3.965-8.264c-.079-.6-.091-1.2-.114-1.516a14.52,14.52,0,0,1,28.875-2.293A14.1,14.1,0,0,1,4810.442,1339.977Z" transform="translate(-3981.001 -303.59)"/></g></svg>