<svg xmlns="http://www.w3.org/2000/svg" width="51.173" height="51.173" viewBox="0 0 51.173 51.173"><defs><style>.a{fill:#c46257;}</style></defs><path class="a" d="M5486.211,902.5h-10.73a4.871,4.871,0,0,1-2.187,2.186v10.73a4.87,4.87,0,0,1,2.187,2.186h10.73a4.864,4.864,0,0,1,2.186-2.186v-10.73A4.864,4.864,0,0,1,5486.211,902.5Z" transform="translate(-5455.258 -884.467)"/><path class="a" d="M5397.379,801a25.586,25.586,0,1,0,25.586,25.586A25.587,25.587,0,0,0,5397.379,801Zm14.563,35.295a4.851,4.851,0,0,1-9.2,2.158h-10.73a4.851,4.851,0,1,1-6.5-6.5v-10.73a4.852,4.852,0,1,1,6.5-6.5h10.73a4.851,4.851,0,1,1,6.5,6.5v10.73A4.849,4.849,0,0,1,5411.942,836.295Z" transform="translate(-5371.792 -801)"/></svg>