<svg xmlns="http://www.w3.org/2000/svg" width="31.046" height="31.046" viewBox="0 0 31.046 31.046"><defs><style>.a{fill:#b45339;}</style></defs><path class="a" d="M6993.523,282a15.523,15.523,0,1,0,15.523,15.523A15.523,15.523,0,0,0,6993.523,282Zm-11.877,9.356a.5.5,0,0,1,.681-.658,6.5,6.5,0,0,0,6.86-.588,5.694,5.694,0,0,1,8.265,1.577.642.642,0,0,1-.815.92,6.726,6.726,0,0,0-6.889.3C6986.348,295.336,6983.16,294.392,6981.646,291.356Zm19.22,5.613c-2.319-.332-5.8-.333-5.8,2.652v1.136a.541.541,0,0,1-.542.542h-.875a.541.541,0,0,1-.541-.542v-1.136c0-2.918-3.569-2.982-6.052-2.673a.239.239,0,0,1-.106-.463,20.922,20.922,0,0,1,14.046.027A.239.239,0,0,1,7000.866,296.969Zm-.037,2.931h-3.983a.337.337,0,0,1-.259-.553c.769-.917,2.538-2.424,4.5,0A.339.339,0,0,1,7000.829,299.9Zm-9.771,0h-4.021a.328.328,0,0,1-.253-.538c.764-.917,2.546-2.46,4.527,0A.329.329,0,0,1,6991.058,299.9Zm.927,4.475a1.958,1.958,0,1,1,1.958,1.958A1.958,1.958,0,0,1,6991.985,304.376Zm2.575,4.166a.249.249,0,0,1-.043-.492,8.811,8.811,0,0,0,6.715-5.229.249.249,0,0,1,.479.12C7001.369,305.342,6999.95,308.818,6994.56,308.541Zm11.5-14.208c-3.325,1.421-5.986-.82-7.645-3.663a7.916,7.916,0,0,0-3.641-3.141.479.479,0,0,1,.221-.915c2.546.152,4.242,1.3,5.938,4.056a5.844,5.844,0,0,0,4.955,2.672A.515.515,0,0,1,7006.063,294.334Z" transform="translate(-6978 -282)"/></svg>