<svg xmlns="http://www.w3.org/2000/svg" width="24" height="24" viewBox="0 0 24 24"><defs><style>.a{fill:#5a8467;}</style></defs><path class="a" d="M1528.991,946.643a12,12,0,1,0,12,12A12,12,0,0,0,1528.991,946.643Zm-6.912,18.433c1.461-1.269,1.227-3.047,1.226-4.753.457-2.753,5.076-2.424,5.391.52C1529.135,963.77,1524.475,966.27,1522.079,965.076Zm7.512-5.7a3.158,3.158,0,0,0-1.81-1.737c2.457-2.466,5.193-5.922,8.123-5.726C1534.031,955.471,1532.666,956.82,1529.59,959.376Z" transform="translate(-1516.991 -946.643)"/></svg>