<svg xmlns="http://www.w3.org/2000/svg" width="18.798" height="20.929" viewBox="0 0 18.798 20.929"><defs><style>.a{fill:#707070;}</style></defs><g transform="translate(0 0)"><path class="a" d="M496.332,44.612l1.258,1.421a2.608,2.608,0,0,1-.216.268q-3.881,3.923-7.768,7.84a5.559,5.559,0,0,1-6.323,1.171,5.5,5.5,0,0,1-3.191-5.381,5.067,5.067,0,0,1,1.428-3.348c2.56-2.581,5.139-5.143,7.708-7.716.907-.909,1.79-1.844,2.715-2.734a3.95,3.95,0,0,1,4.21-1.005,3.784,3.784,0,0,1,2.672,3.238,3.711,3.711,0,0,1-1.038,3.3c-2.644,2.68-5.324,5.324-8,7.975a2.742,2.742,0,0,1-2.25.981,2.429,2.429,0,0,1-2.1-1.535,2.179,2.179,0,0,1,.353-2.505c2.017-2.1,4.093-4.145,6.155-6.221l1.441,1.445-5.314,5.3c-.139.138-.28.275-.415.417-.249.263-.638.527-.259.921.421.437.7,0,.964-.259q1.678-1.645,3.341-3.305c1.483-1.472,2.973-2.938,4.444-4.422a2.14,2.14,0,0,0,.15-3,2.168,2.168,0,0,0-3.054.141c-.816.814-1.6,1.657-2.42,2.47q-3.517,3.5-7.045,6.993a4.4,4.4,0,0,0-1.648,3.34,3.446,3.446,0,0,0,2.137,3.157,3.786,3.786,0,0,0,3.871-.825q3.956-3.986,7.94-7.943A3.01,3.01,0,0,1,496.332,44.612Z" transform="translate(-480.079 -34.896)"/></g></svg>