<svg xmlns="http://www.w3.org/2000/svg" width="13.877" height="13.877" viewBox="0 0 13.877 13.877"><defs><style>.a{fill:#c46257;}</style></defs><g transform="translate(-1865.091 -41.073)"><g transform="translate(1524.06 -231.514)"><g transform="translate(339.437 272.488)"><path class="a" d="M347.953,329.048q-3.609,0-7.217,0a1.286,1.286,0,0,1-1.224-.858,1.212,1.212,0,0,1,.413-1.406,1.486,1.486,0,0,1,.779-.283q7.271-.025,14.542-.01a1.278,1.278,0,0,1-.021,2.557Q351.588,329.052,347.953,329.048Z" transform="translate(-5.752 -470.781) rotate(45)"/><path class="a" d="M347.953,329.048q-3.609,0-7.217,0a1.286,1.286,0,0,1-1.224-.858,1.212,1.212,0,0,1,.413-1.406,1.486,1.486,0,0,1,.779-.283q7.271-.025,14.542-.01a1.278,1.278,0,0,1-.021,2.557Q351.588,329.052,347.953,329.048Z" transform="translate(-469.287 21.321) rotate(-45)"/></g></g></g></svg>