<svg version="1.1" xmlns="http://www.w3.org/2000/svg" width="512" height="512" viewBox="0 0 512 512">
	<path fill="#fff" d="M403.1,108.9c-81.2-81.2-212.9-81.2-294.2,0s-81.2,212.9,0,294.2c81.2,81.2,212.9,81.2,294.2,0S484.3,190.1,403.1,108.9z M390.8,390.8c-74.3,74.3-195.3,74.3-269.6,0c-74.3-74.3-74.3-195.3,0-269.6s195.3-74.3,269.6,0C465.2,195.5,465.2,316.5,390.8,390.8z"/>
	<polygon fill="#fff" points="340.2,160 255.8,244.2 171.8,160.4 160,172.2 244,256 160,339.8 171.8,351.6 255.8,267.8 340.2,352 352,340.2 267.6,256 352,171.8"/>
</svg>