<svg xmlns="http://www.w3.org/2000/svg" xmlns:xlink="http://www.w3.org/1999/xlink" width="391" height="75.5" viewBox="0 0 391 75.5"><defs><style>.a{fill:#fff;stroke:#ebe6dc;}.b{stroke:none;}.c{fill:none;}.d{filter:url(#e);}.e{filter:url(#c);}.f{filter:url(#a);}</style><filter id="a" x="15.5" y="19.5" width="360" height="56" filterUnits="userSpaceOnUse"><feOffset dy="2" input="SourceAlpha"/><feGaussianBlur stdDeviation="1.5" result="b"/><feFlood flood-opacity="0.063"/><feComposite operator="in" in2="b"/><feComposite in="SourceGraphic"/></filter><filter id="c" x="11" y="13" width="369" height="55" filterUnits="userSpaceOnUse"><feOffset dy="2" input="SourceAlpha"/><feGaussianBlur stdDeviation="1" result="d"/><feFlood flood-opacity="0.063"/><feComposite operator="in" in2="d"/><feComposite in="SourceGraphic"/></filter><filter id="e" x="0" y="0" width="391" height="69" filterUnits="userSpaceOnUse"><feOffset dy="3" input="SourceAlpha"/><feGaussianBlur stdDeviation="3" result="f"/><feFlood flood-opacity="0.063"/><feComposite operator="in" in2="f"/><feComposite in="SourceGraphic"/></filter></defs><g transform="translate(-7697 12119)"><g class="f" transform="matrix(1, 0, 0, 1, 7697, -12119)"><g class="a" transform="translate(20 22)"><rect class="b" width="351" height="47" rx="4"/><rect class="c" x="0.5" y="0.5" width="350" height="46" rx="3.5"/></g></g><g class="e" transform="matrix(1, 0, 0, 1, 7697, -12119)"><g class="a" transform="translate(14 14)"><rect class="b" width="363" height="49" rx="4"/><rect class="c" x="0.5" y="0.5" width="362" height="48" rx="3.5"/></g></g><g class="d" transform="matrix(1, 0, 0, 1, 7697, -12119)"><g class="a" transform="translate(9 6)"><rect class="b" width="373" height="51" rx="4"/><rect class="c" x="0.5" y="0.5" width="372" height="50" rx="3.5"/></g></g></g></svg>