<svg xmlns="http://www.w3.org/2000/svg" width="54" height="53" viewBox="0 0 54 53"><defs><style>.a{fill:#fff;}.b{fill:#515350;}.c{fill:#6d4264;}</style></defs><g transform="translate(-80 -454)"><circle class="a" cx="22.5" cy="22.5" r="22.5" transform="translate(80 462)"/><circle class="b" cx="20.5" cy="20.5" r="20.5" transform="translate(82 464)"/><circle class="a" cx="13.5" cy="13.5" r="13.5" transform="translate(107 454)"/><path class="c" d="M1831-328.134a11.15,11.15,0,0,0-11.15,11.15,11.15,11.15,0,0,0,11.15,11.15,11.15,11.15,0,0,0,11.15-11.15A11.15,11.15,0,0,0,1831-328.134Zm5.891,11.915a.589.589,0,0,1-.728-.1c-.13-.119-.261-.235-.46-.413v.414q0,2.265,0,4.53c0,.432-.078.508-.517.508q-1.231,0-2.463,0c-.371,0-.484-.11-.487-.491-.006-.851.013-1.7-.013-2.554a1.211,1.211,0,0,0-1.711-1.056,1.222,1.222,0,0,0-.742,1.191c0,.79,0,1.581,0,2.371,0,.437-.1.538-.537.538h-2.371c-.457,0-.557-.095-.558-.549q0-2.25,0-4.5v-.4c-.172.16-.279.263-.389.362a.637.637,0,0,1-.944.032c-.249-.261-.218-.6.1-.907q1.906-1.833,3.819-3.66.8-.767,1.6-1.535a.642.642,0,0,1,1.031,0q2.692,2.573,5.38,5.15C1837.3-316.9,1837.3-316.432,1836.895-316.219Z" transform="translate(-1710.525 784.506)"/></g></svg>