<svg xmlns="http://www.w3.org/2000/svg" width="14.993" height="14.977" viewBox="0 0 14.993 14.977"><defs><style>.a{fill:#707070;}</style></defs><g transform="translate(1002.972 -531.567) rotate(180)"><g transform="translate(987.979 -546.544)"><path class="a" d="M1.317,4.4c.094-.088.149-.137.2-.189Q3.492,2.238,5.463.262A.689.689,0,0,1,6.192.03a.641.641,0,0,1,.247,1.1c-.494.507-1,1-1.5,1.5l-2.5,2.5c-.053.053-.1.109-.181.189.089.007.147.015.2.015.6,0,1.194,0,1.791,0a.652.652,0,1,1,.006,1.3q-1.791.005-3.583,0A.649.649,0,0,1,0,5.976Q0,4.185.009,2.393a.666.666,0,0,1,.674-.716.656.656,0,0,1,.633.71c.009.576,0,1.153,0,1.729Z" transform="translate(6.655 14.977) rotate(180)"/><path class="a" d="M5.339,2.241c-.089.082-.14.126-.187.173Q3.161,4.4,1.172,6.392a.666.666,0,0,1-.694.218.606.606,0,0,1-.469-.5.7.7,0,0,1,.235-.636q.63-.623,1.255-1.25l2.911-2.9c-.1-.008-.153-.015-.208-.016-.625,0-1.25,0-1.876,0A.623.623,0,0,1,1.7.748.622.622,0,0,1,2.138.037.8.8,0,0,1,2.383,0Q4.175,0,5.968,0a.655.655,0,0,1,.689.677c0,1.181-.006,2.362-.008,3.543a.679.679,0,0,1-.335.648.63.63,0,0,1-.942-.39,1.259,1.259,0,0,1-.031-.309C5.338,3.545,5.339,2.92,5.339,2.241Z" transform="translate(14.992 6.638) rotate(180)"/></g></g></svg>