<svg xmlns="http://www.w3.org/2000/svg" width="7.966" height="10.992" viewBox="0 0 7.966 10.992"><defs><style>.a{fill:#fff;}</style></defs><path class="a" d="M1619.03,2786.9v6.066a.2.2,0,0,1-.195.195h-1.544v-5h-1.5v5h-1.544a.2.2,0,0,1-.195-.195V2786.9h-1.5v6.066a1.693,1.693,0,0,0,1.691,1.691h4.584a1.693,1.693,0,0,0,1.691-1.691V2786.9Z" transform="translate(-1612.56 -2783.661)"/><path class="a" d="M1620.45,2769.794h-2.7v-.18a.719.719,0,0,0-.719-.719h-.9a.719.719,0,0,0-.719.719v.18h-2.7v1.438h7.728Z" transform="translate(-1612.694 -2768.896)"/></svg>