<svg xmlns="http://www.w3.org/2000/svg" width="11.046" height="10.973" viewBox="0 0 11.046 10.973"><defs><style>.a{fill:#fff;}</style></defs><path class="a" d="M726.857,243.178c-.214.005-.321-.113-.278-.34.187-.987.375-1.974.577-2.958a.758.758,0,0,1,.217-.344q2.663-2.674,5.331-5.343c.2-.2.365-.212.567-.007q1.14,1.153,2.294,2.293c.216.213.2.383-.009.595q-2.686,2.674-5.364,5.355a.688.688,0,0,1-.317.2c-.965.188-1.934.36-2.9.536C726.943,243.17,726.91,243.172,726.857,243.178Zm.352-.656,1.349-.366-.982-1Z" transform="translate(-726.57 -232.205)"/><path class="a" d="M838.3,208.127a3.076,3.076,0,0,1-.306.538c-.254.289-.543.547-.81.825a.317.317,0,0,1-.522.012q-1.18-1.183-2.362-2.363a.3.3,0,0,1,0-.5c.286-.274.556-.565.844-.837a.742.742,0,0,1,1.093,0q.9.871,1.769,1.774A2.391,2.391,0,0,1,838.3,208.127Z" transform="translate(-827.252 -205.565)"/></svg>