<svg xmlns="http://www.w3.org/2000/svg" width="54" height="53" viewBox="0 0 54 53"><defs><style>.a{fill:#fff;}.b{fill:#515350;}.c{fill:#da531e;}</style></defs><g transform="translate(-602 -452)"><circle class="a" cx="22.5" cy="22.5" r="22.5" transform="translate(602 460)"/><circle class="b" cx="20.5" cy="20.5" r="20.5" transform="translate(604 462)"/><circle class="a" cx="13.5" cy="13.5" r="13.5" transform="translate(629 452)"/><g transform="translate(631.098 454)"><path class="c" d="M7061.093,719.316l-2.168.342-1.767,1.33,2.184-.349Z" transform="translate(-7052.998 -706.544)"/><path class="c" d="M7060.9,699.775l-1.77-1.3-2.189-.317,1.787,1.3Z" transform="translate(-7052.824 -689.71)"/><path class="c" d="M7079.026,681.378l-.342-2.168-1.331-1.767.35,2.184Z" transform="translate(-7069.066 -673.224)"/><path class="c" d="M7058.391,710.494l-2.13-.533-2.146.533,2.146.533Z" transform="translate(-7050.575 -699.1)"/><path class="c" d="M7068.318,688.6l-1.128-1.882-1.9-1.141,1.141,1.895Z" transform="translate(-7059.472 -679.7)"/><path class="c" d="M7109.526,710.494l2.146.533,2.129-.533-2.129-.533Z" transform="translate(-7094.669 -699.1)"/><path class="c" d="M7090.742,676.53l-.533-2.129-.533,2.129.533,2.146Z" transform="translate(-7078.874 -670.803)"/><path class="c" d="M7108.151,699.311l2.184-.349,1.75-1.323-2.169.342Z" transform="translate(-7093.574 -689.294)"/><path class="c" d="M7106.371,687.463l1.129-1.882-1.883,1.128-1.141,1.895Z" transform="translate(-7090.649 -679.7)"/><path class="c" d="M7100.408,677.226l-1.3,1.786-.31,2.173,1.3-1.77Z" transform="translate(-7086.129 -673.051)"/><path class="c" d="M7108.25,719.08l1.787,1.3,2.171.31-1.77-1.3Z" transform="translate(-7093.653 -706.356)"/><path class="c" d="M7099.03,728.437l.349,2.184,1.324,1.751-.342-2.168Z" transform="translate(-7086.317 -713.802)"/><path class="c" d="M7104.476,724.761l1.141,1.895,1.883,1.128-1.129-1.882Z" transform="translate(-7090.649 -710.877)"/><path class="c" d="M7048.122,656.786a11.336,11.336,0,1,0,11.336,11.336A11.336,11.336,0,0,0,7048.122,656.786Zm6.159,14.748a7.06,7.06,0,0,1-.65.971l1.424,2.55-2.55-1.425a7.056,7.056,0,0,1-.971.651l.34,2.9-1.81-2.291a6.988,6.988,0,0,1-1.146.227l-.8,2.81-.8-2.81a6.984,6.984,0,0,1-1.146-.227l-1.81,2.291.34-2.9a7.027,7.027,0,0,1-.971-.651l-2.55,1.425,1.424-2.55a7.06,7.06,0,0,1-.65-.971l-2.9.34,2.291-1.81a7,7,0,0,1-.228-1.147l-2.81-.8,2.81-.8a7,7,0,0,1,.228-1.147l-2.291-1.81,2.9.34a7.064,7.064,0,0,1,.65-.971l-1.424-2.55,2.55,1.425a7.065,7.065,0,0,1,.971-.651l-.34-2.9,1.81,2.291a7,7,0,0,1,1.146-.227l.8-2.809.8,2.809a7.008,7.008,0,0,1,1.146.227l1.81-2.291-.34,2.9a7.1,7.1,0,0,1,.971.651l2.55-1.425-1.424,2.55a7.108,7.108,0,0,1,.65.971l2.9-.34-2.291,1.81a6.95,6.95,0,0,1,.227,1.147l2.811.8-2.811.8a6.945,6.945,0,0,1-.227,1.147l2.291,1.81Z" transform="translate(-7036.785 -656.786)"/><path class="c" d="M7086.526,704.537a1.99,1.99,0,1,0-1.989,1.989A1.989,1.989,0,0,0,7086.526,704.537Z" transform="translate(-7073.2 -693.201)"/><path class="c" d="M7077.876,732.494l1.3-1.77.317-2.189-1.3,1.786Z" transform="translate(-7069.484 -713.88)"/><path class="c" d="M7066.436,725.89l-1.141,1.895,1.9-1.141,1.128-1.882Z" transform="translate(-7059.472 -710.877)"/><path class="c" d="M7089.676,731.939l.533,2.146.533-2.146-.533-2.129Z" transform="translate(-7078.874 -714.895)"/></g></g></svg>