<svg xmlns="http://www.w3.org/2000/svg" width="24.22" height="23.077" viewBox="0 0 24.22 23.077"><defs><style>.a{fill:#b47a2b;}</style></defs><g transform="translate(-814.122 -962.915)"><path class="a" d="M838.342,966.3a3.424,3.424,0,0,0-1.043-2.492,3.219,3.219,0,0,0-2.415-.891c-.375.017-10.7.008-15.1,0l-2.214,0a3.218,3.218,0,0,0-3.438,3.408c-.008,5.634-.008,10.951,0,16.255a3.193,3.193,0,0,0,3.4,3.4c2.848,0,5.741,0,8.662,0,2.89,0,5.806,0,8.727,0a3.189,3.189,0,0,0,3.409-3.387q0-3.066,0-6.024C838.323,972.994,838.32,969.61,838.342,966.3Zm-2.034,16.1c0,1.128-.421,1.548-1.551,1.548h-7.009q-5.047,0-10.094,0h0c-.67,0-1.038-.154-1.269-.533a1.107,1.107,0,0,1-.187-.5c-.015-3.732-.014-7.666-.014-11.471v-1.223h20.127v3.324C836.309,976.512,836.309,979.534,836.308,982.405Zm-20.088-16.612a.988.988,0,0,1,.85-.78c.766-.063,17.746-.05,18.355.014a1.1,1.1,0,0,1,.871,1.147c.025.608.019,1.084.014,1.634,0,.116,0,.235,0,.358H816.2c0-.152,0-.3-.006-.443C816.187,967.067,816.179,966.5,816.221,965.793Z" transform="translate(0 0)"/><path class="a" d="M896.271,1060.219a19.2,19.2,0,0,0-2.14-.318.574.574,0,0,1-.568-.392,18.707,18.707,0,0,0-.953-1.943,1.181,1.181,0,0,0-.824-.567c-.309-.017-.651.331-.786.568-.193.34-.366.7-.534,1.042-.155.32-.315.651-.49.963a.727.727,0,0,1-.423.3c-.327.066-.667.113-1,.158-.369.051-.75.1-1.122.183-.219.047-.8.245-.882.593a1.333,1.333,0,0,0,.383,1.018c.4.451.853.865,1.29,1.265l.222.2a.456.456,0,0,1,.183.512c-.176.8-.295,1.595-.4,2.338a.894.894,0,0,0,.273.846.754.754,0,0,0,.48.16,1.1,1.1,0,0,0,.379-.071,1.848,1.848,0,0,0,.254-.123c.034-.019.067-.037.1-.055.226-.115.452-.257.671-.395a2.846,2.846,0,0,1,1.389-.594,3.043,3.043,0,0,1,1.418.6c.226.14.46.284.7.4.145.072.293.131.4.175l.093.038.035.015h.043a.923.923,0,0,0,.743-.291.939.939,0,0,0,.17-.784c-.135-.822-.256-1.494-.382-2.115a.642.642,0,0,1,.216-.714,18.545,18.545,0,0,0,1.547-1.516.836.836,0,0,0-.493-1.5Zm-2.952,3.557c.067.3.115.6.171.94l.023.142-.157-.08c-.34-.172-.633-.321-.921-.488a1.137,1.137,0,0,0-1.244-.008c-.3.176-.618.336-.954.505l-.153.078.027-.176c.058-.384.112-.746.191-1.1a1.077,1.077,0,0,0-.339-1.089c-.252-.245-.5-.5-.758-.78l-.125-.132.11-.018c.344-.055.669-.108,1-.138a1.187,1.187,0,0,0,1.062-.741c.143-.316.309-.629.484-.959l.079-.149.071.138c.164.318.32.619.449.922a1.2,1.2,0,0,0,1.088.793,5.339,5.339,0,0,1,1.177.234l-.085.077c-.239.216-.486.44-.738.645A1.275,1.275,0,0,0,893.319,1063.776Z" transform="translate(-65.574 -85.189)"/></g></svg>