<svg xmlns="http://www.w3.org/2000/svg" width="30.94" height="30.939" viewBox="0 0 30.94 30.939"><defs><style>.a{fill:#d0a865;}</style></defs><g transform="translate(-3711.5 -1314.479)"><path class="a" d="M3794.952,1420.953v-7.239h-16.566c0,4.063,0,8.083,0,12.1,0,.492.333.458.662.458,5.161,0,10.083-.007,15.245.009.548,0,.677-.208.669-.71C3794.937,1423.994,3794.952,1422.533,3794.952,1420.953Zm-5.3-.49a1.119,1.119,0,0,0-.322,1.079c.124.828.228,1.659.355,2.6-.914-.425-1.715-.834-2.547-1.165a1.392,1.392,0,0,0-.943,0c-.831.331-1.631.741-2.535,1.164.119-.884.206-1.689.342-2.485a1.293,1.293,0,0,0-.4-1.287c-.588-.557-1.117-1.176-1.741-1.842.911-.166,1.706-.33,2.509-.45a1.246,1.246,0,0,0,1.044-.758c.36-.746.8-1.456,1.253-2.277.476.86.867,1.641,1.335,2.373a1.487,1.487,0,0,0,.8.589c.84.219,1.7.346,2.659.529C3790.818,1419.224,3790.259,1419.87,3789.649,1420.463Z" transform="translate(-59.698 -88.575)"/><path class="a" d="M3726.97,1314.478a15.47,15.47,0,1,0,15.47,15.47A15.47,15.47,0,0,0,3726.97,1314.478Zm9.6,23.16a1.216,1.216,0,0,1-1.356,1.382q-8.249.008-16.5,0a1.216,1.216,0,0,1-1.354-1.384q-.007-7.619,0-15.238c0-.938.458-1.376,1.412-1.387.479-.005.96-.006,1.439-.013.035,0,.07-.032.1-.049.13-1.172.13-1.172,1.617-1.139.691.015.793.15.855,1.161h8.3c.222-1.2.222-1.2,1.671-1.161.662.019.737.118.854,1.2.507,0,1.022,0,1.538,0,.953.009,1.412.45,1.413,1.389Q3736.58,1330.018,3736.574,1337.638Z"/></g></svg>