<svg xmlns="http://www.w3.org/2000/svg" width="54" height="53" viewBox="0 0 54 53"><defs><style>.a{fill:#fff;}.b{fill:#515350;}.c{fill:#d0a865;}</style></defs><g transform="translate(-340 -452)"><circle class="a" cx="22.5" cy="22.5" r="22.5" transform="translate(340 460)"/><circle class="b" cx="20.5" cy="20.5" r="20.5" transform="translate(342 462)"/><circle class="a" cx="13.5" cy="13.5" r="13.5" transform="translate(367 452)"/><g transform="translate(-3341.86 -860.105)"><path class="c" d="M3790.325,1418.931v-5.218h-11.94c0,2.929,0,5.826,0,8.723,0,.354.24.33.477.33,3.72,0,7.267-.005,10.988.007.4,0,.488-.15.482-.512C3790.314,1421.123,3790.325,1420.07,3790.325,1418.931Zm-3.822-.353a.807.807,0,0,0-.232.778c.089.6.164,1.2.256,1.873-.658-.307-1.236-.6-1.836-.839a1,1,0,0,0-.679,0c-.6.239-1.176.534-1.827.839.086-.637.149-1.218.247-1.791a.932.932,0,0,0-.285-.928c-.424-.4-.8-.847-1.254-1.328.656-.12,1.229-.238,1.808-.324a.9.9,0,0,0,.752-.546c.259-.538.574-1.049.9-1.641.343.62.625,1.183.962,1.71a1.072,1.072,0,0,0,.576.424c.606.158,1.229.25,1.917.381C3787.346,1417.685,3786.943,1418.151,3786.5,1418.578Z" transform="translate(-61.705 -91.552)"/><path class="c" d="M3722.65,1314.478a11.15,11.15,0,1,0,11.15,11.15A11.149,11.149,0,0,0,3722.65,1314.478Zm6.922,16.692a.876.876,0,0,1-.978,1q-5.945.005-11.89,0a.877.877,0,0,1-.976-1q0-5.491,0-10.983c0-.676.33-.992,1.018-1,.345,0,.692,0,1.037-.009.025,0,.05-.023.076-.035.094-.845.094-.845,1.165-.821.5.011.572.108.616.837h5.985c.16-.866.16-.866,1.2-.837.477.013.531.085.616.865.365,0,.737,0,1.108,0,.687.006,1.018.325,1.018,1Q3729.576,1325.679,3729.572,1331.17Z"/></g></g></svg>