<svg xmlns="http://www.w3.org/2000/svg" width="30.77" height="30.769" viewBox="0 0 30.77 30.769"><defs><style>.a{fill:#da531e;}</style></defs><g transform="translate(0)"><path class="a" d="M7062.5,719.316l-2.942.464-2.4,1.806,2.964-.474Z" transform="translate(-7051.511 -701.982)"/><path class="a" d="M7062.313,700.352l-2.4-1.761-2.971-.43,2.425,1.77Z" transform="translate(-7051.353 -686.692)"/><path class="a" d="M7079.623,682.783l-.465-2.942-1.806-2.4.475,2.964Z" transform="translate(-7066.106 -671.717)"/><path class="a" d="M7059.918,710.685l-2.891-.724-2.912.724,2.912.724Z" transform="translate(-7049.311 -695.221)"/><path class="a" d="M7069.4,689.684l-1.531-2.555-2.572-1.548,1.548,2.571Z" transform="translate(-7057.392 -677.599)"/><path class="a" d="M7109.525,710.685l2.912.724,2.89-.724-2.89-.724Z" transform="translate(-7089.363 -695.221)"/><path class="a" d="M7091.123,677.29l-.724-2.889-.724,2.889.724,2.913Z" transform="translate(-7075.015 -669.518)"/><path class="a" d="M7108.15,699.908l2.964-.474,2.375-1.8-2.943.464Z" transform="translate(-7088.368 -686.314)"/><path class="a" d="M7107.047,688.136l1.532-2.555-2.556,1.531-1.548,2.571Z" transform="translate(-7085.711 -677.599)"/><path class="a" d="M7100.984,677.226l-1.77,2.424-.421,2.948,1.761-2.4Z" transform="translate(-7081.605 -671.56)"/><path class="a" d="M7108.249,719.08l2.425,1.77,2.947.421-2.4-1.761Z" transform="translate(-7088.439 -701.812)"/><path class="a" d="M7099.03,728.437l.473,2.964,1.8,2.376-.464-2.942Z" transform="translate(-7081.776 -708.575)"/><path class="a" d="M7104.476,724.761l1.548,2.571,2.556,1.531-1.532-2.555Z" transform="translate(-7085.711 -705.919)"/><path class="a" d="M7052.17,656.786a15.385,15.385,0,1,0,15.385,15.385A15.385,15.385,0,0,0,7052.17,656.786Zm8.358,20.015a9.594,9.594,0,0,1-.883,1.318l1.933,3.461-3.46-1.934a9.59,9.59,0,0,1-1.317.883l.462,3.935-2.456-3.109a9.5,9.5,0,0,1-1.556.309l-1.081,3.813-1.08-3.813a9.489,9.489,0,0,1-1.556-.309l-2.456,3.109.461-3.935a9.536,9.536,0,0,1-1.318-.883l-3.46,1.934,1.933-3.461a9.594,9.594,0,0,1-.883-1.318l-3.935.461,3.108-2.456a9.514,9.514,0,0,1-.309-1.556l-3.813-1.079,3.813-1.08a9.522,9.522,0,0,1,.309-1.556l-3.108-2.456,3.935.462a9.6,9.6,0,0,1,.883-1.318l-1.933-3.46,3.46,1.933a9.591,9.591,0,0,1,1.318-.883l-.461-3.934,2.456,3.109a9.514,9.514,0,0,1,1.556-.309l1.08-3.813,1.081,3.813a9.529,9.529,0,0,1,1.556.309l2.456-3.109-.462,3.934a9.646,9.646,0,0,1,1.317.883l3.46-1.933-1.933,3.46a9.64,9.64,0,0,1,.883,1.318l3.934-.462-3.108,2.456a9.419,9.419,0,0,1,.308,1.556l3.814,1.08-3.814,1.079a9.412,9.412,0,0,1-.308,1.556l3.108,2.456Z" transform="translate(-7036.785 -656.786)"/><path class="a" d="M7087.947,705.247a2.7,2.7,0,1,0-2.7,2.7A2.7,2.7,0,0,0,7087.947,705.247Z" transform="translate(-7069.862 -689.863)"/><path class="a" d="M7077.876,733.908l1.761-2.4.431-2.971-1.771,2.424Z" transform="translate(-7066.486 -708.646)"/><path class="a" d="M7066.843,726.293l-1.548,2.571,2.572-1.548,1.531-2.555Z" transform="translate(-7057.392 -705.919)"/><path class="a" d="M7089.676,732.7l.724,2.913.724-2.913-.724-2.889Z" transform="translate(-7075.015 -709.568)"/></g></svg>