<svg xmlns="http://www.w3.org/2000/svg" width="13.825" height="13.811" viewBox="0 0 13.825 13.811"><defs><style>.a{fill:#707070;}</style></defs><g transform="translate(1001.804 -532.733) rotate(180)"><g transform="translate(987.979 -546.544)"><path class="a" d="M1.215,4.059c.087-.081.138-.127.186-.175Q3.22,2.064,5.038.241A.635.635,0,0,1,5.71.028a.591.591,0,0,1,.227,1.015c-.456.468-.921.926-1.383,1.388L2.244,4.739c-.049.049-.1.1-.167.174.082.006.135.014.189.014.551,0,1.1,0,1.652,0a.6.6,0,1,1,.006,1.2q-1.652,0-3.3,0A.6.6,0,0,1,0,5.511q0-1.652.008-3.3a.614.614,0,0,1,.621-.66.6.6,0,0,1,.583.654c.008.531,0,1.063,0,1.594Z" transform="translate(0 7.682)"/><path class="a" d="M4.923,2.067c-.082.076-.129.116-.173.16Q2.915,4.06,1.081,5.894a.614.614,0,0,1-.64.2.559.559,0,0,1-.432-.464.642.642,0,0,1,.217-.587Q.807,4.47,1.384,3.892L4.068,1.216c-.09-.007-.141-.014-.192-.014-.577,0-1.153,0-1.73,0A.575.575,0,0,1,1.566.69.573.573,0,0,1,1.971.034.735.735,0,0,1,2.2,0Q3.85,0,5.5,0a.6.6,0,0,1,.635.624c0,1.089-.005,2.178-.007,3.267a.626.626,0,0,1-.309.6.581.581,0,0,1-.869-.36,1.161,1.161,0,0,1-.029-.285C4.922,3.269,4.923,2.693,4.923,2.067Z" transform="translate(7.687 0)"/></g></g></svg>