<svg xmlns="http://www.w3.org/2000/svg" width="16.217" height="16.238" viewBox="0 0 16.217 16.238"><defs><style>.a{fill:#c46257;}</style></defs><path class="a" d="M2744.884,291.276l-1.135-.566c-.751-.374-1.5-.754-2.254-1.12a.33.33,0,0,1-.213-.351c.007-2.241,0-4.481.008-6.722a.668.668,0,0,0-.181-.483q-3-3.408-5.986-6.826c-.041-.047-.08-.1-.143-.172H2751.2c-.23.264-.44.507-.651.748q-2.759,3.149-5.514,6.3a.673.673,0,0,0-.141.409q-.012,4.2-.006,8.4Z" transform="translate(-2734.979 -275.037)"/></svg>