<svg xmlns="http://www.w3.org/2000/svg" width="80.53" height="63.248" viewBox="0 0 80.53 63.248"><defs><style>.a{fill:#eee;}</style></defs><g transform="translate(-2029.876 67.395)"><path class="a" d="M2047.255,19.291a15.445,15.445,0,0,0,3.447-2.137,12.734,12.734,0,0,0,1.91-1.568,1.8,1.8,0,0,0,.726-.563.3.3,0,0,1,.021-.078c.326-.07.482-.378.747-.534l1.6-1.369a1.741,1.741,0,0,0,.752-.535.585.585,0,0,1,.1-.02c.422-.292.844-.582,1.282-.85l.311-.222a11.031,11.031,0,0,1,4.92-1.578,2.119,2.119,0,0,0,.149-2.646A5.174,5.174,0,0,0,2061,5.536a24.543,24.543,0,0,1-4.424-2.461,5.676,5.676,0,0,1-1.93-3.059,13.481,13.481,0,0,1-.767-4.746,3.814,3.814,0,0,1,.323-1.358,14.185,14.185,0,0,1,1.411-2.532l.311-.451a3.221,3.221,0,0,0,.747-.747c.124-.377.542-.456.752-.745a9.573,9.573,0,0,1,2.452-1.269.229.229,0,0,1,.1,0c.3-.009.561-.182.856-.214a.232.232,0,0,1,.1,0,10.285,10.285,0,0,1,7.408,1.422c.238.152.4.407.681.495l.551.538c.155.226.4.378.525.629a5.881,5.881,0,0,1,1.089,4.191,10.74,10.74,0,0,1-1.219,4.326,3.852,3.852,0,0,1-1.054,1.228.915.915,0,0,1-.987.127,1.121,1.121,0,0,1-.607-.936,2.472,2.472,0,0,1,.433-1.581,8.486,8.486,0,0,0,.332-.85c0-.526.2-1.033.2-1.549a6.832,6.832,0,0,0-.424-2.47,5.531,5.531,0,0,0-3.966-3.614,5.146,5.146,0,0,0-4.62,1.017,7.128,7.128,0,0,0-2.786,5.341,4.151,4.151,0,0,0,1.552,3.544,4.449,4.449,0,0,0,1.4,1.036,11.434,11.434,0,0,0,3.309.983c.327.051.648.137.977.184a11.1,11.1,0,0,1,1.584.44,5.755,5.755,0,0,1,.986.512,2.667,2.667,0,0,1,1.018,2.055,1.687,1.687,0,0,1,.013,1.039,3.042,3.042,0,0,0,.278,1.88c.422.968,1.336,1.234,2.483.791a11.227,11.227,0,0,0,1.311-.213,2.826,2.826,0,0,0,.85-.069c.324.079.66-.012.984.069l.4.021c.538.1,1.073.205,1.609.309h0c.429.091.864.153,1.3.2a10.045,10.045,0,0,0,3.259-.32,5.836,5.836,0,0,0,1.092-.192L2082.924,8c.365-.076.708-.225,1.068-.316a18.791,18.791,0,0,0,2.029-.748,6.835,6.835,0,0,0,1.386-.533l.859-.425c.8-.355,1.573-.756,2.346-1.163l.2-.13a30.027,30.027,0,0,0,2.969-1.833,2.972,2.972,0,0,1,1.1-.493c.351.009.691.04.841.436a18.62,18.62,0,0,1,.53,1.9c.415,1.782.844,3.561,1.234,5.348a6.394,6.394,0,0,1,.072,1.307.683.683,0,0,1-.424.681.7.7,0,0,1-.728-.212,3.759,3.759,0,0,1-1-2.263,6.577,6.577,0,0,0-.867-3.037,1.524,1.524,0,0,0-2.582-.236,3.424,3.424,0,0,0-.614,4.527,11.514,11.514,0,0,1,1.248,2.616c.005.016.025.03.027.045.044.44.271.958-.171,1.266s-.909.04-1.314-.223a4.8,4.8,0,0,1-1.914-3.43,4.874,4.874,0,0,0-.482-1.492,1.138,1.138,0,0,0-1.236-.607c-.532.1-.656.528-.719.968a4.408,4.408,0,0,0,1.07,3.349c.338.451.7.883,1.032,1.341a1.64,1.64,0,0,1,.277,1.556c-.1.278-1.159.341-1.665.172a3.222,3.222,0,0,1-1.28-.892,8.054,8.054,0,0,1-1.845-3.169,3.812,3.812,0,0,0-.814-1.517,1.216,1.216,0,0,0-1.313-.276c-.436.116-.521.59-.554,1a14.588,14.588,0,0,0,.337,3c.036.29.089.578.134.868a4.419,4.419,0,0,1,0,1.69c-.087.332-.153.672-.266.995a.721.721,0,0,1-.768.535c-.339-.027-.382-.31-.471-.592a4.866,4.866,0,0,1,.169-2.382c.114-.668.19-1.337.264-2.008a2.93,2.93,0,0,0-.531-1.725,1.62,1.62,0,0,0-1.7-.553,1.143,1.143,0,0,0-.789,1.127,5.577,5.577,0,0,0,.5,2.378,35.318,35.318,0,0,1,1.2,3.36,2.37,2.37,0,0,1,.07.683c-.011.177.11.444-.148.5a.794.794,0,0,1-.749-.09,3.144,3.144,0,0,1-1.208-2.329,18.638,18.638,0,0,0-1.161-4.654.943.943,0,0,0-.933-.658.991.991,0,0,0-.854.9,2.7,2.7,0,0,0,.022,1.179,33.518,33.518,0,0,1,.65,4.152,2.6,2.6,0,0,1,.006.48c-.036.553-.4.745-.892.486a1.245,1.245,0,0,1-.6-.83,18.456,18.456,0,0,1-.555-3.077,6.662,6.662,0,0,0-.674-2.988c-.144-.235-.265-.507-.594-.4-.292.092-.266.378-.255.625a6.6,6.6,0,0,0,.448,1.49,11.583,11.583,0,0,1,.428,2.739c.011.3-.038.64-.378.742-.314.094-.45-.2-.606-.411a8.6,8.6,0,0,1-.818-2.2c-.342-.9-.586-1.835-.9-2.745a.922.922,0,0,0-1.088-.683c-.344.073-.523.528-.5,1.091a8.46,8.46,0,0,0,1.344,3.729,20.6,20.6,0,0,1,1.864,4.06,34.779,34.779,0,0,1,.9,4.185,12.57,12.57,0,0,0,1.015,4.017,7.883,7.883,0,0,0,1.963,2.1c.731.631,1.482,1.24,2.225,1.858.665.434,1.234.99,1.865,1.469a3.372,3.372,0,0,0,.49.312c.155.05.234.236.418.235.343.363.8.609,1.06,1.057a1.073,1.073,0,0,1-.077,1.246,1.527,1.527,0,0,1-1.549.3,4.384,4.384,0,0,1-1.935-1.217,16.292,16.292,0,0,0-3.573-2.678,3.835,3.835,0,0,0-1.85-.541,1.924,1.924,0,0,0-1.685.9,19.357,19.357,0,0,0-1.485,2.919,27.918,27.918,0,0,1-1.378,2.85c-.353.571-.7.52-.956-.1a5.153,5.153,0,0,1,.42-4.553,19.2,19.2,0,0,1,1.418-2.08,2.986,2.986,0,0,0,.487-3.34c-.114-.21-.321-.326-.425-.533a3.426,3.426,0,0,1-.642-.642,13.375,13.375,0,0,1-2.788-4.965,25.626,25.626,0,0,1-.962-4.977,15.5,15.5,0,0,1-.1-2.858,5.387,5.387,0,0,0-.293-2.206,1.552,1.552,0,0,0-1.543-.866,1.143,1.143,0,0,0-.759,1.234,16.232,16.232,0,0,0,.537,2.666,21.829,21.829,0,0,1,.427,3.31,1.955,1.955,0,0,1-.1.619,1,1,0,0,1-.983.806c-.534-.035-.7-.451-.8-.86-.334-1.33-.645-2.666-.942-4.005a3.677,3.677,0,0,0-.5-1.1,1.1,1.1,0,0,0-1.123-.416.973.973,0,0,0-.826.849,3.648,3.648,0,0,0,.516,2.448,10.661,10.661,0,0,1,.868,3.768,2.147,2.147,0,0,1-.329,1.208.761.761,0,0,1-1.391-.007,7.642,7.642,0,0,1-.647-2.314,11.3,11.3,0,0,0-.891-2.578.934.934,0,0,0-1.146-.618,1.131,1.131,0,0,0-.825.935,5,5,0,0,0,.641,3.027,5.811,5.811,0,0,0,.971,1.433c.088.285.378.415.512.665a2.16,2.16,0,0,1,.553,2.088,1.107,1.107,0,0,1-1.512.692,3.468,3.468,0,0,1-1.6-1.7c-.6-1.078-1-2.257-1.648-3.311-.357-.576-.793-.887-1.223-.733-.508.183-.55.687-.646,1.129a6.6,6.6,0,0,0,.3,3.2,13.8,13.8,0,0,1,.621,3.993c-.007.362-.062.83-.466,1-.468.2-.825-.078-1.14-.427a5.1,5.1,0,0,1-.934-2.372,11.7,11.7,0,0,0-1.543-3.654,1.664,1.664,0,0,0-1.684-.957c-.682.109-.866.7-1.06,1.257a4.677,4.677,0,0,0,0,1.294,22.756,22.756,0,0,0,.334,2.465c.064.747.02,1.5.083,2.241a1.072,1.072,0,0,1-.183.546c-.271.49-.722.486-1.012.006a5.9,5.9,0,0,1-.524-2.866,13.107,13.107,0,0,0-.262-2.816,1.323,1.323,0,0,0-2.273-.581,2.355,2.355,0,0,0-.79,1.394c-.045.221-.089.441-.134.662a3.655,3.655,0,0,1-.038,1.278,24.487,24.487,0,0,1-.248,2.868.733.733,0,0,1-.45.644c-.33.122-.533-.076-.727-.3a1.593,1.593,0,0,1-.378-1.067c-.014-1.468.015-2.936-.014-4.4a4.882,4.882,0,0,0-.238-1.371,1.263,1.263,0,0,0-2.025-.434,8.819,8.819,0,0,0-2.032,2.458,7.4,7.4,0,0,1-2.019,2.326.8.8,0,0,1-1.142-.176V26.9a22.836,22.836,0,0,1,2.757-5.135,7.875,7.875,0,0,0,.873-2.123.731.731,0,0,1,.985-.129,4.3,4.3,0,0,0,2.035.748c.27.062.549.086.823.128a10.842,10.842,0,0,0,1.2.191c.25.2.538.087.81.1a9.031,9.031,0,0,0,2.262.04l.4-.037a9.956,9.956,0,0,0,2.052-.3,2.768,2.768,0,0,0,1.151-.342A8.161,8.161,0,0,0,2047.255,19.291Z" transform="translate(0 -49.298)"/><path class="a" d="M2492.582,319.429c-.646-.814-.291-1.642.006-2.44a10.886,10.886,0,0,1,1.51-2.568,5.737,5.737,0,0,0,.985-4.86c-.552-2.374-.777-4.8-1.228-7.181a6.918,6.918,0,0,0-.363-1.153c-.069-.183-.074-.441-.364-.461-.308-.02-.43.2-.552.421q-.584,1.062-1.17,2.123c-.281.509-.555,1.023-.853,1.523-.158.267-.342.621-.7.527s-.388-.466-.388-.8a5.96,5.96,0,0,1,.768-2.638,24.475,24.475,0,0,0,1.514-3.063,4.774,4.774,0,0,0,.24-2.227,2.5,2.5,0,0,1,0-.583c.049-.546.475-1.205.816-1.184.536.033.8.45,1.021.881a7.875,7.875,0,0,0,1.235,2.249,1.483,1.483,0,0,0,.555.362,5.593,5.593,0,0,1,2.892,2.8.688.688,0,0,1,.089.3c.011.208.046.438-.174.574s-.405-.022-.564-.153c-.536-.44-1.057-.9-1.6-1.333a2.754,2.754,0,0,0-.911-.613c-.5-.146-.708.041-.611.539.4,2.056.819,4.109,1.2,6.168a5.662,5.662,0,0,0,2.2,3.249c1.154.984,2.4,1.86,3.455,2.958a2.185,2.185,0,0,1,.56.949.989.989,0,0,1-.429,1.153c-.385.262-.664-.018-.913-.252-.72-.676-1.426-1.369-2.133-2.06-.891-.87-1.737-.743-2.265.372a28.672,28.672,0,0,0-1.037,3.111,5.747,5.747,0,0,1-2.365,3.3Z" transform="translate(-410.511 -323.576)"/><path class="a" d="M2645.72,247.913a4.743,4.743,0,0,1-1.794-.292,1.574,1.574,0,0,0-2.123.825,20.447,20.447,0,0,1-3.416,4.724c-.317.282-.663.7-1.087.461-.446-.254-.2-.771-.088-1.155a7.713,7.713,0,0,1,1.3-2.347,6.289,6.289,0,0,0,1.03-5.356c-.633-2.94-1.442-5.837-2.2-8.747-.581-2.239-1.141-4.483-1.711-6.725a.614.614,0,0,0-.531-.544c-.368-.05-.468.242-.557.465-.354.881-.673,1.777-1.005,2.667a10.815,10.815,0,0,1-1.5,2.951c-.173.221-.359.427-.656.343-.258-.073-.247-.339-.289-.561a6.608,6.608,0,0,1,1.113-4.53,23.9,23.9,0,0,0,1.7-3.264,5.4,5.4,0,0,0,.346-1.906,1.336,1.336,0,0,1,.085-.625c.172-.35.386-.464.759-.265.47.251.713.724,1.1,1.053a21.689,21.689,0,0,0,4.084,2.294,6.639,6.639,0,0,1,1.839,1.2,1.337,1.337,0,0,1,.372.63,1.142,1.142,0,0,1-.188,1.148.947.947,0,0,1-1.184.042,3.7,3.7,0,0,1-.923-.709,9.267,9.267,0,0,0-1.748-1.541.942.942,0,0,0-.175-.115c-.343-.1-.71-.353-1.042-.112s-.129.627-.052.941c.437,1.779.953,3.535,1.513,5.28a79.368,79.368,0,0,0,3.019,7.863,8.429,8.429,0,0,0,1.963,3.158,3.472,3.472,0,0,0,2.229.951,1.426,1.426,0,0,1,1.256.515.7.7,0,0,1-.438,1.191A8.337,8.337,0,0,1,2645.72,247.913Z" transform="translate(-536.94 -260.22)"/><path class="a" d="M2108.238,37.3c-.145.729.187,1.242.936,1.7a5.165,5.165,0,0,1,2.713,4.264.735.735,0,0,1-.29.75c-.3.17-.487-.117-.683-.272a9.351,9.351,0,0,1-1.945-2.338c-.176-.269-.291-.615-.705-.49-.443.134-.383.557-.314.843.2.846.323,1.705.447,2.561a40.584,40.584,0,0,1,.407,4.576,7.917,7.917,0,0,0,.7,3.644,3.75,3.75,0,0,0,1.566,1.519,4.735,4.735,0,0,1,2.362,2.63,2.173,2.173,0,0,1,.046,1.29c-.117.429-.391.537-.753.283a3.41,3.41,0,0,1-1-1.4,5.088,5.088,0,0,0-.927-1.411,1.316,1.316,0,0,0-2.047.022,12.039,12.039,0,0,0-1.3,1.964q-.819,1.313-1.63,2.632a2.434,2.434,0,0,1-.339.4.7.7,0,0,1-.857.218.833.833,0,0,1-.45-.887,3.069,3.069,0,0,1,.5-1.383,11.644,11.644,0,0,1,1.853-2.5,3.752,3.752,0,0,0,1.105-3.756,45.9,45.9,0,0,1-.88-6.966c-.05-.912.031-1.832,0-2.746a4.769,4.769,0,0,0-.277-1.754c-.13-.305-.235-.4-.507-.12a14.076,14.076,0,0,0-1.181,1.574,4.247,4.247,0,0,1-1.682,1.642c-.3.125-.61.344-.919.072-.291-.257-.088-.555.017-.824a8.091,8.091,0,0,1,1.609-2.457,15.9,15.9,0,0,1,1.4-1.39,3.9,3.9,0,0,0,1.366-2.249,1.954,1.954,0,0,1,.415-.9.742.742,0,0,1,.775-.314.662.662,0,0,1,.452.654C2108.258,36.658,2108.238,36.926,2108.238,37.3Z" transform="translate(-64.464 -92.102)"/><path class="a" d="M2490.09-59.462a5.978,5.978,0,0,1,.49-2.464,5.191,5.191,0,0,0-.061-4.127,1.067,1.067,0,0,1,.092-1.062c.2-.341.453-.337.748-.165a2.985,2.985,0,0,1,1.057,1.53c.644,1.372.966,1.755,2.4,1.7.532-.019,1.066-.005,1.6.011a1.047,1.047,0,0,1,1.043.663,1.645,1.645,0,0,1-.056,1.43.534.534,0,0,1-.785.27,5.584,5.584,0,0,1-1.028-.732,4.838,4.838,0,0,1-.57-.466.512.512,0,0,0-.658-.112c-.248.138-.248.411-.208.657a8.268,8.268,0,0,0,.715,2.191,19.871,19.871,0,0,1,1.4,5.116,6.469,6.469,0,0,0,2.419,3.876,5.761,5.761,0,0,1,2,2.28.8.8,0,0,1-.4,1.038.714.714,0,0,1-1.036-.323,3.457,3.457,0,0,1-.308-.614c-.236-.612-.56-1.148-1.3-1.218a1.7,1.7,0,0,0-1.544.828,4.842,4.842,0,0,0-.8,1.877,10.545,10.545,0,0,1-1.194,3.127c-.14.227-.265.574-.613.5-.325-.069-.457-.379-.517-.686a5.479,5.479,0,0,1,.352-3.056,18.931,18.931,0,0,1,1.513-2.764,2.8,2.8,0,0,0,.291-2.229c-.662-2.468-1.231-4.96-2.028-7.391a5.138,5.138,0,0,0-.625-1.223c-.243-.366-.449-.341-.634.053a5.326,5.326,0,0,0-.3,1.909,1.953,1.953,0,0,1-.217.782c-.264.507-.713.4-.974-.027A1.574,1.574,0,0,1,2490.09-59.462Z" transform="translate(-411.041)"/></g></svg>