<svg xmlns="http://www.w3.org/2000/svg" width="16.786" height="15.372" viewBox="0 0 16.786 15.372"><defs><style>.a{fill:#fff;}</style></defs><g transform="translate(-1281.936 -575.062)"><g transform="translate(1281.936 575.062)"><path class="a" d="M1290.362,590.434c-2.9-2.2-5.719-4.377-7.485-7.58a5.979,5.979,0,0,1-.813-4.314c.648-2.811,4.265-4.892,7.075-2.287.322.3.626.616.938.926.081.081.158.165.232.243.491-.46.943-.907,1.418-1.326,2.646-2.333,6.291-.387,6.9,2.583a6.12,6.12,0,0,1-.837,4.2,17.345,17.345,0,0,1-4.036,4.783C1292.67,588.6,1291.529,589.481,1290.362,590.434Z" transform="translate(-1281.936 -575.062)"/></g></g></svg>