<svg xmlns="http://www.w3.org/2000/svg" width="16.786" height="15.372" viewBox="0 0 16.786 15.372"><defs><style>.a{fill:none;}.b,.c{stroke:none;}.c{fill:#fff;}</style></defs><g transform="translate(-1281.936 -575.062)"><g transform="translate(1281.936 575.062)"><g class="a" transform="translate(-1281.936 -575.062)"><path class="b" d="M1290.362,590.434c-2.9-2.2-5.719-4.377-7.485-7.58a5.979,5.979,0,0,1-.813-4.314c.648-2.811,4.265-4.892,7.075-2.287.322.3.626.616.938.926.081.081.158.165.232.243.491-.46.943-.907,1.418-1.326,2.646-2.333,6.291-.387,6.9,2.583a6.12,6.12,0,0,1-.837,4.2,17.345,17.345,0,0,1-4.036,4.783C1292.67,588.6,1291.529,589.481,1290.362,590.434Z"/><path class="c" d="M 1290.327758789062 587.892333984375 C 1291.063842773438 587.302001953125 1291.76171875 586.7396240234375 1292.431640625 586.152587890625 C 1294.166748046875 584.6320190429688 1295.274047851562 583.3298950195312 1296.02197265625 581.9308471679688 C 1296.642333984375 580.7698364257812 1296.834106445312 579.9163818359375 1296.663208007812 579.0770263671875 C 1296.437133789062 577.9661865234375 1295.397827148438 577.0624389648438 1294.346557617188 577.0624389648438 C 1293.887573242188 577.0624389648438 1293.451293945312 577.2418823242188 1293.0498046875 577.595947265625 C 1292.754760742188 577.85595703125 1292.4599609375 578.1368408203125 1292.14794921875 578.4342041015625 C 1291.993530273438 578.5812377929688 1291.837280273438 578.7301635742188 1291.676879882812 578.8805541992188 L 1290.230834960938 580.2365112304688 L 1288.862182617188 578.8025512695312 C 1288.833740234375 578.7728271484375 1288.804931640625 578.7421875 1288.775756835938 578.7111206054688 C 1288.734375 578.6669311523438 1288.695068359375 578.6251220703125 1288.666015625 578.5961303710938 C 1288.574340820312 578.5048828125 1288.483154296875 578.4130249023438 1288.391967773438 578.3211059570312 C 1288.17919921875 578.1066284179688 1287.978149414062 577.9039916992188 1287.778930664062 577.7191162109375 C 1287.308349609375 577.2828369140625 1286.811767578125 577.0616455078125 1286.302856445312 577.0616455078125 C 1285.302124023438 577.0616455078125 1284.253173828125 577.9442138671875 1284.012329101562 578.9888916015625 C 1283.81201171875 579.85791015625 1284.001953125 580.7521362304688 1284.628295898438 581.8882446289062 C 1285.979125976562 584.3383178710938 1288.1181640625 586.1832275390625 1290.327758789062 587.892333984375 M 1290.36181640625 590.4337158203125 C 1287.45703125 588.2334594726562 1284.642700195312 586.0567626953125 1282.876831054688 582.8538818359375 C 1282.140258789062 581.517822265625 1281.706787109375 580.0866088867188 1282.0634765625 578.53955078125 C 1282.503051757812 576.6329345703125 1284.3095703125 575.0616455078125 1286.302856445312 575.0616455078125 C 1287.248046875 575.0616455078125 1288.23486328125 575.41455078125 1289.138671875 576.25244140625 C 1289.46044921875 576.551025390625 1289.76513671875 576.868408203125 1290.07666015625 577.1783447265625 C 1290.157470703125 577.2589111328125 1290.234497070312 577.34375 1290.308837890625 577.421630859375 C 1290.799682617188 576.9613647460938 1291.251586914062 576.514892578125 1291.727294921875 576.0955810546875 C 1292.544677734375 575.3748779296875 1293.45751953125 575.0624389648438 1294.346435546875 575.0624389648438 C 1296.335327148438 575.0624389648438 1298.205322265625 576.625732421875 1298.623046875 578.6781005859375 C 1298.93212890625 580.196044921875 1298.484375 581.5663452148438 1297.785888671875 582.8734741210938 C 1296.782104492188 584.7511596679688 1295.3330078125 586.2692260742188 1293.749755859375 587.65673828125 C 1292.669677734375 588.603271484375 1291.529296875 589.4810180664062 1290.36181640625 590.4337158203125 Z"/></g></g></g></svg>