<svg xmlns="http://www.w3.org/2000/svg" width="17.063" height="14.075" viewBox="0 0 17.063 14.075"><defs><style>.a{fill:#b47a2b;}</style></defs><g transform="translate(-339.437 -272.488)"><g transform="translate(339.437 272.488)"><path class="a" d="M347.978,275.048q-3.622,0-7.244,0a1.285,1.285,0,0,1-1.222-.86,1.211,1.211,0,0,1,.416-1.405,1.488,1.488,0,0,1,.779-.281q7.271-.025,14.541-.01a1.278,1.278,0,0,1-.025,2.556Q351.6,275.052,347.978,275.048Z" transform="translate(-339.439 -272.488)"/><path class="a" d="M347.953,329.048q-3.609,0-7.217,0a1.286,1.286,0,0,1-1.224-.858,1.212,1.212,0,0,1,.413-1.406,1.486,1.486,0,0,1,.779-.283q7.271-.025,14.542-.01a1.278,1.278,0,0,1-.021,2.557Q351.588,329.052,347.953,329.048Z" transform="translate(-339.437 -320.731)"/><path class="a" d="M347.976,383.048q-3.622,0-7.244,0a1.285,1.285,0,0,1-1.222-.861,1.207,1.207,0,0,1,.417-1.4,1.545,1.545,0,0,1,.806-.282q7.244-.025,14.488-.011a1.279,1.279,0,1,1,0,2.557Q351.6,383.052,347.976,383.048Z" transform="translate(-339.437 -368.974)"/></g></g></svg>