<svg xmlns="http://www.w3.org/2000/svg" width="54" height="53" viewBox="0 0 54 53"><defs><style>.a{fill:#fff;}.b{fill:#515350;}.c{fill:#a48116;}</style></defs><g transform="translate(-731 -452)"><circle class="a" cx="22.5" cy="22.5" r="22.5" transform="translate(731 460)"/><circle class="b" cx="20.5" cy="20.5" r="20.5" transform="translate(733 462)"/><circle class="a" cx="13.5" cy="13.5" r="13.5" transform="translate(758 452)"/><path class="c" d="M7059.25,497.994a11.336,11.336,0,1,0,11.336,11.336A11.336,11.336,0,0,0,7059.25,497.994Zm5.765,8.086a32.353,32.353,0,0,1-4.436-1.058,9.328,9.328,0,0,1,3.646-.646,1.6,1.6,0,0,1,1.354,1.289h0C7065.641,505.967,7065.334,506.133,7065.014,506.08Zm-1.611-4.342.576-.23a1.042,1.042,0,1,1,.526,2c-1.354.176-3.071.542-3.071.542l.762-1.28A2.471,2.471,0,0,1,7063.4,501.738Zm-3.71-.036a.818.818,0,0,1,1.2-.011l.336.359a.815.815,0,0,1-.029,1.145c-.418.4-1.09,1.033-2.092,1.935a5.609,5.609,0,0,0-1.678,4.441l-1.007-1.322a1.554,1.554,0,0,1-.281-1.27,5.675,5.675,0,0,1,.525-1.477A16.363,16.363,0,0,1,7059.693,501.7Zm-2.172.31a.391.391,0,0,1,.261.656,13.487,13.487,0,0,0-2.39,3.976,15.9,15.9,0,0,1,.672-3.63A1.423,1.423,0,0,1,7057.521,502.011Zm-4.1.344a1.042,1.042,0,1,1,2.052.255c-.339,1.323-.638,3.052-.638,3.052l-.905-1.183a2.479,2.479,0,0,1-.509-1.5Zm0,2.544s2.04,3.29,3.47,5.067a3.378,3.378,0,0,0,3.636.987s-.033.954-1.622,1.217c-2.642.3-4.728-2.434-4.728-2.434a8.425,8.425,0,0,1-1.711-3.093C7051.971,504.867,7053.419,504.9,7053.419,504.9Zm-4.037,1.616a.817.817,0,0,1,.391-1.136l.45-.2a.816.816,0,0,1,1.071.41c.239.529.515,1.415,1.124,2.619a7.823,7.823,0,0,0,2.615,3.233,5.267,5.267,0,0,1-2.994-1.624A13.49,13.49,0,0,1,7049.382,506.515Zm4.168,5.444a31.829,31.829,0,0,1,4.478,1.209,8.738,8.738,0,0,1-3.652.62c-.662-.014-1.248-.752-1.385-1.4C7052.922,512.067,7053.228,511.9,7053.55,511.959Zm1.8,4.239-.575.23a1.043,1.043,0,0,1-1.355-.581h0a1.041,1.041,0,0,1,.83-1.42c1.354-.176,3.071-.542,3.071-.542l-.762,1.28A2.478,2.478,0,0,1,7055.35,516.2Zm3.289.73a.817.817,0,0,1-1.2-.111l-.3-.391a.815.815,0,0,1,.145-1.136c.457-.358,1.189-.917,2.279-1.712a5.608,5.608,0,0,0,2.123-4.247l.867,1.418a1.558,1.558,0,0,1,.15,1.293,5.719,5.719,0,0,1-.673,1.416A16.372,16.372,0,0,1,7058.639,516.928Zm2.193-.086a.391.391,0,0,1-.193-.679,13.471,13.471,0,0,0,2.783-3.711,15.839,15.839,0,0,1-1.039,3.542A1.422,1.422,0,0,1,7060.832,516.841Zm4.179-.54-.062.616a1.043,1.043,0,0,1-1.144.931h0a1.04,1.04,0,0,1-.872-1.393c.473-1.281.946-2.972.946-2.972l.78,1.27A2.48,2.48,0,0,1,7065.01,516.3Zm-.052-2.925s-1.859-3.4-3.192-5.247a3.376,3.376,0,0,0-3.576-1.182s.084-.951,1.686-1.128c2.653-.153,4.588,2.687,4.588,2.687a8.42,8.42,0,0,1,1.541,3.181C7066.4,513.488,7064.958,513.376,7064.958,513.376Zm3.722-.964-.451.2a.814.814,0,0,1-1.069-.41c-.24-.529-.516-1.415-1.125-2.619a7.824,7.824,0,0,0-2.615-3.233,5.265,5.265,0,0,1,2.993,1.624,13.5,13.5,0,0,1,2.658,3.3A.818.818,0,0,1,7068.68,512.412Z" transform="translate(-6287.618 -43.994)"/></g></svg>