<svg xmlns="http://www.w3.org/2000/svg" width="18.274" height="18.274" viewBox="0 0 18.274 18.274"><defs><style>.a{fill:#b47a2b;}</style></defs><g transform="translate(0 0)"><g transform="translate(0 0)"><path class="a" d="M9.119,2.742q-3.865,0-7.73,0A1.378,1.378,0,0,1,.079,1.822,1.3,1.3,0,0,1,.521.316a1.591,1.591,0,0,1,.834-.3Q9.142-.013,16.929,0a1.369,1.369,0,0,1-.023,2.738Q13.013,2.746,9.119,2.742Z" transform="translate(18.274 10.508) rotate(180)"/><path class="a" d="M9.119,2.742q-3.865,0-7.73,0A1.378,1.378,0,0,1,.079,1.822,1.3,1.3,0,0,1,.521.317a1.591,1.591,0,0,1,.834-.3Q9.142-.013,16.929,0a1.369,1.369,0,0,1-.023,2.738Q13.013,2.746,9.119,2.742Z" transform="translate(7.765 18.274) rotate(-90)"/></g></g></svg>