<svg xmlns="http://www.w3.org/2000/svg" width="54" height="53" viewBox="0 0 54 53"><defs><style>.a{fill:#fff;}.b{fill:#515350;}.c{fill:#c46257;}</style></defs><g transform="translate(-210 -452)"><circle class="a" cx="22.5" cy="22.5" r="22.5" transform="translate(210 460)"/><circle class="b" cx="20.5" cy="20.5" r="20.5" transform="translate(212 462)"/><circle class="a" cx="13.5" cy="13.5" r="13.5" transform="translate(237 452)"/><g transform="translate(-4533.627 -854.627)"><circle class="c" cx="3.712" cy="3.712" r="3.712" transform="translate(4780.425 1314.769)"/><path class="c" d="M4784.137,1309a11.137,11.137,0,1,0,11.137,11.137A11.136,11.136,0,0,0,4784.137,1309Zm5.136,13.462a21.812,21.812,0,0,1-3.369,3.655c-.482.452-.976.893-1.455,1.349a.383.383,0,0,1-.615.011c-1.417-1.406-2.876-2.772-4.235-4.232a6.462,6.462,0,0,1-1.723-3.592c-.035-.259-.04-.522-.05-.659a6.31,6.31,0,0,1,12.549-1A6.132,6.132,0,0,1,4789.272,1322.462Z" transform="translate(0)"/></g></g></svg>