<svg xmlns="http://www.w3.org/2000/svg" width="12.184" height="9.458" viewBox="0 0 12.184 9.458"><defs><style>.a{fill:#fff;}</style></defs><g transform="translate(-2621.991 -65.324)"><path class="a" d="M2629,70.066q0,2.173,0,4.346c0,.136-.009.264-.142.337a.344.344,0,0,1-.362-.054q-2.2-1.3-4.413-2.593a.512.512,0,0,0-.243-.063c-.5-.006-.995,0-1.492,0-.252,0-.357-.1-.357-.351q0-1.63,0-3.26a.314.314,0,0,1,.358-.358c.487,0,.973,0,1.459,0a.68.68,0,0,0,.317-.085q2.169-1.266,4.331-2.542a1.444,1.444,0,0,1,.156-.086.258.258,0,0,1,.357.149.676.676,0,0,1,.029.222Q2629,67.893,2629,70.066Z" transform="translate(0)"/><g transform="translate(2630.166 65.87)"><path class="a" d="M2750.482,163.609a1.106,1.106,0,0,0-.167-.236c-.316-.322-.641-.646-.954-.958l-.183-.182a.669.669,0,0,0-.972-.06.656.656,0,0,0-.206.464.751.751,0,0,0,.245.543q.556.558,1.114,1.113a.948.948,0,0,0,.263.193.651.651,0,0,0,.275.061.636.636,0,0,0,.335-.1.716.716,0,0,0,.326-.6l0-.12-.066-.1Z" transform="translate(-2747.997 -156.264)"/><path class="a" d="M2748.619,76.291h.005a.734.734,0,0,0,.513-.225c.352-.349.766-.761,1.172-1.175a.925.925,0,0,0,.162-.241c.012-.024.025-.05.041-.076l.138-.237-.177-.21c-.015-.019-.029-.039-.043-.058a.778.778,0,0,0-.275-.264.649.649,0,0,0-.78.14q-.353.358-.709.712l-.469.47a.666.666,0,0,0-.043.962A.656.656,0,0,0,2748.619,76.291Z" transform="translate(-2747.969 -73.732)"/><path class="a" d="M2764.826,127.422c-.194,0-.388,0-.582,0h-.495c-.194,0-.388,0-.582,0a.662.662,0,1,0-.006,1.323q.415,0,.821,0c.29,0,.575,0,.854,0a.72.72,0,0,0,.518-.206.648.648,0,0,0,.179-.47A.656.656,0,0,0,2764.826,127.422Z" transform="translate(-2761.523 -123.937)"/></g></g></svg>