<svg xmlns="http://www.w3.org/2000/svg" width="54" height="53" viewBox="0 0 54 53"><defs><style>.a{fill:#fff;}.b{fill:#515350;}.c{fill:#84815a;}</style></defs><g transform="translate(-862 -452)"><circle class="a" cx="22.5" cy="22.5" r="22.5" transform="translate(862 460)"/><circle class="b" cx="20.5" cy="20.5" r="20.5" transform="translate(864 462)"/><circle class="a" cx="13.5" cy="13.5" r="13.5" transform="translate(889 452)"/><path class="c" d="M7086.749,1036.874a10.963,10.963,0,1,0,10.964,10.963A10.962,10.962,0,0,0,7086.749,1036.874Zm-3.778,4.21s1.186-1.042,4.172-1.232c0,0-3.793.995-4.6,3.412Zm7.347,0s-3.437.379-3.97,2.749a6.489,6.489,0,0,1-4.183,1.374S7085.388,1038.383,7090.318,1041.084Zm1.9,7.44s-.949,3.459-4.225,3.744v-3.744S7089,1049.852,7092.219,1048.524Zm-5.871-3.548a5.194,5.194,0,0,0,.794,2.861v4.431s-4.6.474-4.978-6.184A5.216,5.216,0,0,0,7086.348,1044.976Zm-4.23-3.656a14.18,14.18,0,0,0,.427,9.526h-3.081A8.9,8.9,0,0,1,7082.118,1041.321Zm5.782,14.217c-1.943.237-4.833.095-7.772-3.649h3.508s3.126,2.559,6.445.521C7090.081,1052.411,7089.844,1055.3,7087.9,1055.538Zm2.181-.568c1.09-2.133.8-3.081.8-3.081a14.627,14.627,0,0,0,2.583-4.674,2.122,2.122,0,1,1,.6-1.746C7095.661,1052.535,7090.081,1054.97,7090.081,1054.97Z" transform="translate(-6184.291 -582.128)"/></g></svg>