<svg xmlns="http://www.w3.org/2000/svg" width="31.167" height="31.167" viewBox="0 0 31.167 31.167"><defs><style>.a{fill:#84815a;}</style></defs><path class="a" d="M7091.369,1036.874a15.583,15.583,0,1,0,15.584,15.584A15.583,15.583,0,0,0,7091.369,1036.874Zm-5.37,5.984s1.684-1.482,5.929-1.751c0,0-5.391,1.414-6.535,4.85Zm10.442,0s-4.885.539-5.643,3.907a9.223,9.223,0,0,1-5.945,1.953S7089.434,1039.019,7096.441,1042.858Zm2.7,10.576s-1.349,4.916-6,5.322v-5.322S7094.57,1055.321,7099.144,1053.434Zm-8.345-5.043a7.382,7.382,0,0,0,1.129,4.067v6.3s-6.535.674-7.074-8.791A7.413,7.413,0,0,0,7090.8,1048.391Zm-6.012-5.2a20.161,20.161,0,0,0,.606,13.54h-4.378A12.651,12.651,0,0,1,7084.787,1043.195ZM7093,1063.4c-2.761.337-6.871.135-11.047-5.187h4.985s4.445,3.637,9.162.741C7096.1,1058.958,7095.768,1063.067,7093,1063.4Zm3.1-.808c1.549-3.031,1.139-4.379,1.139-4.379a20.793,20.793,0,0,0,3.671-6.643,3.015,3.015,0,1,1,.86-2.481C7104.038,1059.135,7096.1,1062.6,7096.1,1062.6Z" transform="translate(-7075.786 -1036.874)"/></svg>