<svg xmlns="http://www.w3.org/2000/svg" width="60" height="60" viewBox="0 0 60 60"><defs><style>.a{fill:#707070;}.b{fill:#fff;}</style></defs><g transform="translate(-554.609 -211)"><rect class="a" width="60" height="60" rx="30" transform="translate(554.609 211)"/><g transform="translate(577.346 230.094)"><path class="b" d="M197.84,73a4.1,4.1,0,0,0,4.09-4.09V62.09a4.09,4.09,0,0,0-8.18,0v6.817A4.1,4.1,0,0,0,197.84,73Z" transform="translate(-189.66 -58)"/><path class="b" d="M151.133,179.875v2.045a5.453,5.453,0,0,1-10.907,0v-2.045H137.5v2.045a8.139,8.139,0,0,0,6.817,8.044v2.863h2.727v-2.863a8.193,8.193,0,0,0,6.817-8.044v-2.045Z" transform="translate(-137.5 -171.013)"/></g></g></svg>