<svg xmlns="http://www.w3.org/2000/svg" width="15.742" height="20.989" viewBox="0 0 15.742 20.989"><defs><style>.a{fill:#707070;}</style></defs><path class="a" d="M197.685,72.43a3.947,3.947,0,0,0,3.935-3.935V61.935a3.935,3.935,0,1,0-7.871,0v6.559A3.947,3.947,0,0,0,197.685,72.43Z" transform="translate(-189.815 -58)"/><path class="a" d="M150.618,179.875v1.968a5.247,5.247,0,0,1-10.495,0v-1.968H137.5v1.968a7.832,7.832,0,0,0,6.559,7.74v2.755h2.624v-2.755a7.883,7.883,0,0,0,6.559-7.74v-1.968Z" transform="translate(-137.5 -171.348)"/></svg>