<svg xmlns="http://www.w3.org/2000/svg" width="54" height="53" viewBox="0 0 54 53"><defs><style>.a{fill:#fff;}.b{fill:#515350;}.c{fill:#008ca9;}</style></defs><g transform="translate(-993 -452)"><circle class="a" cx="22.5" cy="22.5" r="22.5" transform="translate(993 460)"/><circle class="b" cx="20.5" cy="20.5" r="20.5" transform="translate(995 462)"/><circle class="a" cx="13.5" cy="13.5" r="13.5" transform="translate(1020 452)"/><path class="c" d="M6834.25,938.721a11.239,11.239,0,1,0,11.239,11.239A11.239,11.239,0,0,0,6834.25,938.721Zm5.793,10.3a1.142,1.142,0,1,1-1.141-1.142A1.141,1.141,0,0,1,6840.043,949.019Zm-3.061-3.547a1.142,1.142,0,1,1-1.142,1.142A1.142,1.142,0,0,1,6836.982,945.473Zm-.012,4.688a1.142,1.142,0,1,1-1.141-1.142A1.141,1.141,0,0,1,6836.97,950.161Zm-2.72-6.34a1.142,1.142,0,1,1-1.143,1.142A1.142,1.142,0,0,1,6834.25,943.821Zm0,2.915a1.142,1.142,0,1,1-1.143,1.142A1.142,1.142,0,0,1,6834.25,946.736Zm-.461,3.425a1.142,1.142,0,1,1-1.143-1.142A1.142,1.142,0,0,1,6833.789,950.161Zm-2.138-4.688a1.142,1.142,0,1,1-1.143,1.142A1.142,1.142,0,0,1,6831.651,945.473Zm-1.919,2.4a1.142,1.142,0,1,1-1.142,1.142A1.141,1.141,0,0,1,6829.732,947.878Zm9.716,6.9a12.65,12.65,0,0,1-10.4,0c-1.888-1.07-3.5-3.06-3.545-4.275s1.019-1.055,1.894-1.153c0,0-2.042.472-.146,1.59s7,.923,7,.923,5.1.194,7-.923-.146-1.59-.146-1.59c.875.1,1.944-.062,1.894,1.153S6841.337,953.707,6839.448,954.777Z" transform="translate(-5800.678 -484.527)"/></g></svg>