<svg xmlns="http://www.w3.org/2000/svg" width="31.512" height="31.512" viewBox="0 0 31.512 31.512"><defs><style>.a{fill:#008ca9;}</style></defs><path class="a" d="M6838.767,938.721a15.756,15.756,0,1,0,15.756,15.756A15.756,15.756,0,0,0,6838.767,938.721Zm8.121,14.437a1.6,1.6,0,1,1-1.6-1.6A1.6,1.6,0,0,1,6846.888,953.158Zm-4.29-4.972a1.6,1.6,0,1,1-1.6,1.6A1.6,1.6,0,0,1,6842.6,948.186Zm-.018,6.572a1.6,1.6,0,1,1-1.6-1.6A1.6,1.6,0,0,1,6842.58,954.758Zm-3.813-8.888a1.6,1.6,0,1,1-1.6,1.6A1.6,1.6,0,0,1,6838.767,945.87Zm0,4.087a1.6,1.6,0,1,1-1.6,1.6A1.6,1.6,0,0,1,6838.767,949.957Zm-.646,4.8a1.6,1.6,0,1,1-1.6-1.6A1.6,1.6,0,0,1,6838.12,954.758Zm-3-6.572a1.6,1.6,0,1,1-1.6,1.6A1.6,1.6,0,0,1,6835.124,948.186Zm-2.69,3.371a1.6,1.6,0,1,1-1.6,1.6A1.6,1.6,0,0,1,6832.434,951.558Zm13.621,9.671c-2.826,1.6-7.288,1.567-7.288,1.567s-4.46.035-7.288-1.567c-2.647-1.5-4.9-4.29-4.971-5.993s1.429-1.479,2.655-1.616c0,0-2.861.662-.2,2.229s9.808,1.294,9.808,1.294,7.151.272,9.808-1.294-.2-2.229-.2-2.229c1.227.136,2.725-.087,2.655,1.616S6848.7,959.729,6846.055,961.229Z" transform="translate(-6823.011 -938.721)"/></svg>