<?xml version="1.0" encoding="UTF-8" standalone="no"?>
<svg
   xmlns:dc="http://purl.org/dc/elements/1.1/"
   xmlns:cc="http://creativecommons.org/ns#"
   xmlns:rdf="http://www.w3.org/1999/02/22-rdf-syntax-ns#"
   xmlns:svg="http://www.w3.org/2000/svg"
   xmlns="http://www.w3.org/2000/svg"
   xmlns:sodipodi="http://sodipodi.sourceforge.net/DTD/sodipodi-0.dtd"
   xmlns:inkscape="http://www.inkscape.org/namespaces/inkscape"
   width="8.897"
   height="9.759"
   viewBox="0 0 8.897 9.759"
   version="1.1"
   id="svg3817"
   sodipodi:docname="share_icon_red.svg"
   inkscape:version="0.92.3 (2405546, 2018-03-11)">
  <metadata
     id="metadata3821">
    <rdf:RDF>
      <cc:Work
         rdf:about="">
        <dc:format>image/svg+xml</dc:format>
        <dc:type
           rdf:resource="http://purl.org/dc/dcmitype/StillImage" />
        <dc:title></dc:title>
      </cc:Work>
    </rdf:RDF>
  </metadata>
  <sodipodi:namedview
     pagecolor="#ffffff"
     bordercolor="#666666"
     borderopacity="1"
     objecttolerance="10"
     gridtolerance="10"
     guidetolerance="10"
     inkscape:pageopacity="0"
     inkscape:pageshadow="2"
     inkscape:window-width="1920"
     inkscape:window-height="1017"
     id="namedview3819"
     showgrid="false"
     inkscape:zoom="24.182806"
     inkscape:cx="-2.1057434"
     inkscape:cy="4.8794999"
     inkscape:window-x="0"
     inkscape:window-y="30"
     inkscape:window-maximized="1"
     inkscape:current-layer="svg3817" />
  <defs
     id="defs3813">
    <style
       id="style3811">.a{fill:#fff;}</style>
  </defs>
  <path
     class="a"
     d="M946.743,1447.326a1.546,1.546,0,0,0-.861.287l-3.76-2.153a1.242,1.242,0,0,1,.029-.143c0-.029,0-.115-.029-.144l3.76-2.152a1.476,1.476,0,0,0,.861.287,1.435,1.435,0,1,0-1.435-1.435.259.259,0,0,0,.029.143l-3.76,2.153a1.435,1.435,0,1,0-.861,2.583,1.546,1.546,0,0,0,.861-.287l3.76,2.153c0,.057-.029.086-.029.143a1.435,1.435,0,1,0,1.435-1.435Z"
     id="path3815"
     transform="translate(-939.281 -1440.438)"
     style="fill:#c46156;fill-opacity:1" />
</svg>
