<svg xmlns="http://www.w3.org/2000/svg" width="8.897" height="9.759" viewBox="0 0 8.897 9.759"><defs><style>.a{fill:#fff;}</style></defs><path class="a" d="M946.743,1447.326a1.546,1.546,0,0,0-.861.287l-3.76-2.153a1.242,1.242,0,0,1,.029-.143c0-.029,0-.115-.029-.144l3.76-2.152a1.476,1.476,0,0,0,.861.287,1.435,1.435,0,1,0-1.435-1.435.259.259,0,0,0,.029.143l-3.76,2.153a1.435,1.435,0,1,0-.861,2.583,1.546,1.546,0,0,0,.861-.287l3.76,2.153c0,.057-.029.086-.029.143a1.435,1.435,0,1,0,1.435-1.435Z" transform="translate(-939.281 -1440.438)"/></svg>