<svg xmlns="http://www.w3.org/2000/svg" width="17.711" height="22.272" viewBox="0 0 17.711 22.272"><defs><style>.a{fill:#b47a2b;}</style></defs><g transform="translate(-5869.99 -1998.563)"><path class="a" d="M5904.6,2008.091h.045a4.764,4.764,0,0,0,.024-9.528h-.129a4.768,4.768,0,0,0-3.293,1.388,4.608,4.608,0,0,0-1.406,3.3,4.865,4.865,0,0,0,1.379,3.432A4.694,4.694,0,0,0,5904.6,2008.091Zm-2.662-4.809a2.564,2.564,0,0,1,.758-1.827,2.669,2.669,0,1,1,1.922,4.537h-.031A2.66,2.66,0,0,1,5901.942,2003.283Z" transform="translate(-25.97 0)"/><path class="a" d="M5885.062,2086.476a9.1,9.1,0,0,0-12.432,0,6.983,6.983,0,0,0-2.639,4.849c0,2.073,1.661,2.965,3.055,3.347a33.8,33.8,0,0,0,11.6,0c1.395-.383,3.056-1.274,3.056-3.347A6.981,6.981,0,0,0,5885.062,2086.476Zm-6.215,6.61a22.425,22.425,0,0,1-5.247-.427c-1.52-.417-1.52-1.036-1.52-1.333,0-1.785,2.857-5.214,6.767-5.214s6.767,3.429,6.767,5.214c0,.3,0,.916-1.52,1.333A22.425,22.425,0,0,1,5878.846,2093.085Z" transform="translate(0 -74.339)"/></g></svg>