<svg xmlns="http://www.w3.org/2000/svg" width="242.51" height="242.518" viewBox="0 0 242.51 242.518">
  <g id="Group_81" data-name="Group 81" transform="translate(-733.435 -217)">
    <g id="Group_739" data-name="Group 739" transform="translate(631.116 60.537)">
      <path id="Path_10050" data-name="Path 10050" d="M384.993,371.391c-2.006,0-1.819,3.112.184,3.112S387,371.391,384.993,371.391Z" transform="translate(-77.131 -6.713)" fill="#3f656a"/>
      <path id="Path_10051" data-name="Path 10051" d="M294.374,359.312c-1.917,1.507-3.284,4.722-5.54,5.672-5.165,2.176-8.449-.64-12.018-3.514-2.3-1.855-4.7-3.7-7.826-3.552-3.4.161-5.4,2.36-7.471,4.737-3.748,4.311-8.491,6.235-13.762,2.886-2.041-1.3-3.59-3.333-5.546-4.766-7.88-5.785-13.876-2.728-18.434,4.97-1.023,1.73,1.75,3.155,2.768,1.435,1.466-2.475,3.989-6.275,7.258-6.621,4.1-.431,7.373,3.464,10.085,5.828,2.132,1.856,3.906,3.227,6.758,3.833,7.308,1.554,9.583-2.445,14.174-6.755,7.178-6.74,11.655,4.548,18.521,5.7a10.4,10.4,0,0,0,7.187-1.567c1.658-1.026,2.483-2.526,3.885-3.781,5.171-4.618,9.9-2.959,12.056,2.677.713,1.868,3.678.9,2.96-.979C307.131,359.482,300.255,354.686,294.374,359.312Z" transform="translate(0 0)" fill="#3f656a"/>
      <path id="Path_10052" data-name="Path 10052" d="M295.464,385.13c-1.458,1.026-2.078,2.734-3.357,3.889-5.347,4.826-10.111,2.243-14.888-.6-3.392-2.017-6.766-4.921-10.962-4.648-3.73.244-5.387,2.623-7.684,5.221-4.114,4.652-9.41,6.1-15.051,2.192-1.357-.939-2.55-2.094-3.974-2.942-6.781-4.04-11.148.281-14.2,6.32A1.56,1.56,0,0,0,228.115,396c1.658-3.277,3.434-7.532,9.245-5.47,1.7.6,3.32,2.467,4.8,3.487a15.522,15.522,0,0,0,7.243,2.971c6.014.58,8.116-3.16,12.034-6.607,2.53-2.227,7.972-2.538,10.912-1.378,1.518.6,2.9,1.892,4.311,2.711,2.933,1.706,6.216,3.2,9.677,3.263a9.6,9.6,0,0,0,5.133-1.179,12.532,12.532,0,0,0,2.944-2.68q.553-.728,1.106-1.45,3.115-5.1,9.813,1.7c.812,1.813,3.782.857,2.961-.979C306.146,385.589,300.519,381.573,295.464,385.13Z" transform="translate(-0.777 -12.674)" fill="#3f656a"/>
      <path id="Path_10053" data-name="Path 10053" d="M300.717,414.383c-3.331-1.377-5.094.289-7.936,1.768-3.626,1.885-7.055,4.314-11.248,2.09-1.959-1.036-3.559-2.677-5.411-3.88-2.131-1.387-4.3-2.59-6.941-2.286-3.381.392-5.4,3.06-7.612,5.316-4.166,4.25-5.725,6.022-13.527,2.232-1.62-.787-2.936-2.059-4.645-2.759-6.183-2.538-13.864-1.45-18.489,3.425-1.384,1.458.926,3.553,2.307,2.1,3.781-3.983,9.92-4.538,14.871-2.586,3.062,1.207,5.354,3.786,8.444,4.893,5.556,1.991,9.722-1.408,13.345-5.2,4.158-4.351,6.819-5.2,11.854-1.583,1.98,1.422,3.779,3.012,6.092,3.885a11.176,11.176,0,0,0,6.752.542c4.458-1.114,11.82-9.26,14.282.622.485,1.946,3.444.961,2.96-.979C305.013,418.751,304.011,415.743,300.717,414.383Z" transform="translate(-0.448 -26.3)" fill="#3f656a"/>
    </g>
    <g id="Group_879" data-name="Group 879" transform="translate(657.466 37.977)">
      <path id="Path_10165" data-name="Path 10165" d="M138.612,292.591a3.041,3.041,0,0,0-1.162-2.849c-1.245-.729-2.879.214-3.607,1.46s-.91,2.737-1.519,4.046c-.955,2.05-2.856,3.462-4.6,4.906a28.284,28.284,0,0,0-7.86,9.436c-.382.809-.658,1.892,0,2.5a1.949,1.949,0,0,0,1.676.3c2.452-.438,4.417-2.264,5.981-4.2s2.913-4.1,4.856-5.657c1.287,2.011,1.22,4.568,1.192,6.957a104.546,104.546,0,0,0,2.29,23.018c.563,2.63,1.208,5.45.161,7.925-.77,1.815-2.337,3.142-3.733,4.535a32.477,32.477,0,0,0-5.4,7.134,6.907,6.907,0,0,0-1.048,2.953,2.745,2.745,0,0,0,1.373,2.647,2.79,2.79,0,0,0,2.731-.416,8.2,8.2,0,0,0,1.886-2.179l6.243-9.21c1.122-1.653,2.493-3.465,4.477-3.68,2.106-.228,3.933,1.475,5.052,3.274s1.91,3.874,3.522,5.252a2.1,2.1,0,0,0,2.452.486,1.921,1.921,0,0,0,.617-.883c.88-2.215-.093-4.766-1.55-6.654a13.974,13.974,0,0,0-3.681-3.322,37.289,37.289,0,0,1-4.778-2.863,11.015,11.015,0,0,1-3.336-6.131,42.541,42.541,0,0,1-.637-7.067,96.532,96.532,0,0,0-2.457-17.613,3.7,3.7,0,0,1-.135-1.686,1.243,1.243,0,0,1,1.188-1.023c.552.047.923.566,1.231,1.027a31.247,31.247,0,0,0,6,6.68c.834.7,2.1,1.346,2.91.625a2.125,2.125,0,0,0,.556-1.482,11.653,11.653,0,0,0-2.982-8.061,17.073,17.073,0,0,0-6.124-4.782c-2.534-1.133-1.9-2.928-1.78-5.394" transform="translate(-20.589 -26.724)" fill="#b47a2b"/>
      <path id="Path_10166" data-name="Path 10166" d="M366.836,259.183q2.279,7.294,4.331,14.657a7.993,7.993,0,0,1,.426,2.705,7.143,7.143,0,0,1-1.156,3.04c-1.589,2.684-3.592,5.143-4.776,8.029a15.852,15.852,0,0,0-1.14,7.165c.1,1.377.795,3.091,2.175,3.034.9-.036,1.547-.847,2.027-1.605a25.373,25.373,0,0,0,2.716-5.823c.544-1.693.908-3.447,1.591-5.09a8.01,8.01,0,0,1,3.3-4.069,4.353,4.353,0,0,1,4.974.376c1.486,1.4,1.634,4.006,3.439,4.959a2.775,2.775,0,0,0,3.867-2.36,4.562,4.562,0,0,0-1.309-2.771c-3.161-3.712-8.013-5.9-10.457-10.122-1.4-2.411-1.853-5.233-2.415-7.963a43.975,43.975,0,0,0-2.291-7.9c-1.126-2.722-2.668-5.3-3.336-8.164-.163-.7-.189-1.618.445-1.971a1.725,1.725,0,0,1,1.705.344c1.673,1.1,3.114,2.606,4.979,3.341a1.923,1.923,0,0,0,2.615-.745,1.9,1.9,0,0,0,.2-.534c.826-1.9.35-4.6-1.6-5.294a5.435,5.435,0,0,0-1.765-.214l-5.109-.053a8.137,8.137,0,0,1-3.319-.5c-3.186-1.455-3.388-6.256-6.332-8.154a2.554,2.554,0,0,0-1.721-.468c-1.325.2-1.959,1.835-1.749,3.159a29.1,29.1,0,0,0,1.369,3.773c1.66,5.438-3.633,11.082-2.327,16.616.312,1.327,1.347,2.747,2.7,2.561a2.46,2.46,0,0,0,1.836-1.853,12.3,12.3,0,0,0,.262-2.742c.075-1.28.35-3.963,1.515-4.673,2.382,2.26,3.392,6.273,4.341,9.311" transform="translate(-132.528 0)" fill="#b47a2b"/>
      <path id="Path_10167" data-name="Path 10167" d="M446.435,408.21c-2.828,4.364-5.622,9.518-4.175,14.513a1.831,1.831,0,0,0,.75,1.168c.706.382,1.544-.18,2.1-.756,4.184-4.287,5.274-10.642,8.115-15.917a1.81,1.81,0,0,1,.664-.794c.97-.514,1.848.82,2.147,1.876l10.418,36.82c1.276,4.507,2.543,9.371.965,13.782-1.641,4.588-6.121,7.867-7.194,12.621a2.274,2.274,0,0,0,.283,2.059c.8.872,2.252.259,3.2-.457,4.066-3.075,7.135-7.278,9.8-11.62,1.258-2.045,2.878-4.4,5.28-4.4a8.314,8.314,0,0,1,2.232.462,19.192,19.192,0,0,0,8.136.5,3.216,3.216,0,0,0,2.16-.993c.9-1.187-.127-2.985-1.494-3.576s-2.925-.44-4.4-.668a11.329,11.329,0,0,1-6.576-3.934,30.451,30.451,0,0,1-4.106-6.629,206.013,206.013,0,0,1-14.131-36.837,1.435,1.435,0,0,1-.055-.876c.2-.541.922-.638,1.495-.562,3.89.5,6.287,4.429,9.631,6.481,1.376.844,3.264,1.329,4.529.327a3.248,3.248,0,0,0,.57-3.944,7.675,7.675,0,0,0-3.129-2.889c-5.57-3.267-12.4-4.561-16.983-9.106-1.026-1.017-2.814-2.868-4.346-1.488-.977.877-.583,2.775-.763,3.948-.605,4.018-2.967,7.554-5.131,10.893" transform="translate(-173.179 -75.66)" fill="#b47a2b"/>
      <path id="Path_10168" data-name="Path 10168" d="M368.987,433.968c-.689-1.217-2.018-2.259-3.386-1.972a3.347,3.347,0,0,0-2.282,2.9,28.723,28.723,0,0,0,.019,3.925c-.116,7.141-7.768,12.543-7.688,19.683.01.949.314,2.081,1.22,2.356,1.07.325,2-.77,2.582-1.721l6.19-10.072c.245-.4.576-.85,1.048-.841.509.007.832.536,1.029,1,2.183,5.089,2.166,10.82,3.3,16.238.949,4.536,2.725,9.177,1.569,13.665-.814,3.16-2.978,5.761-4.913,8.389s-3.756,5.606-3.7,8.867a2.714,2.714,0,0,0,.455,1.653c.85,1.079,2.593.648,3.739-.111a15.37,15.37,0,0,0,5.289-7.066c1.153-2.751,1.9-5.664,3.03-8.426.574-1.4,1.4-2.9,2.849-3.344,1.98-.608,3.876,1.034,5.365,2.475a65.823,65.823,0,0,0,5.264,4.565,3.943,3.943,0,0,0,1.671.9c1.683.294,3.031-1.731,2.728-3.412s-1.645-2.96-2.964-4.048c-3.852-3.172-8.135-5.808-11.837-9.154a12.6,12.6,0,0,1-2.886-3.444,14.92,14.92,0,0,1-1.129-3.54l-3.8-16.623a.756.756,0,0,1,0-.488.643.643,0,0,1,.457-.294c1.153-.269,2.274.478,3.226,1.186l5.525,4.115a2.257,2.257,0,0,0,1.555.629,1.512,1.512,0,0,0,1.151-1.556,3.876,3.876,0,0,0-.737-1.957c-1.776-2.827-4.321-5.671-7.553-6.725-4.2-1.369-4.437-4.316-6.385-7.759" transform="translate(-132.374 -94.151)" fill="#b47a2b"/>
      <path id="Path_10169" data-name="Path 10169" d="M188.762,314.586c-.014-2.37.322-4.86-.658-7.016-1.479-3.262-5.373-4.567-8.887-5.263-4.521-.895-9.177-1.366-13.447-3.1s-8.232-5.036-9.284-9.524a13.718,13.718,0,0,1,.387-6.955A19.392,19.392,0,0,1,169.388,269.8a17.6,17.6,0,0,1,17.341,4.141,16.121,16.121,0,0,1,3.44,17.312,22.775,22.775,0,0,0-1.537,3.689,3.874,3.874,0,0,0,.835,3.727,3.489,3.489,0,0,0,3.716.41,7.515,7.515,0,0,0,2.9-2.628,25.315,25.315,0,0,0,4.238-12.284,17.452,17.452,0,0,0-.355-6.554,14.974,14.974,0,0,0-3.573-5.965c-6.523-7-17.029-9.016-26.511-7.736a27.056,27.056,0,0,0-7.469,1.963c-4.138,1.854-7.481,5.146-10.221,8.76a21.048,21.048,0,0,0-3.453,6.148c-1.554,4.835-.261,10.09,1.326,14.914a21.951,21.951,0,0,0,2.852,6.2c2.37,3.243,6.167,5.067,9.806,6.765l6.99,3.263c2.319,1.082,4.733,2.24,6.27,4.286s1.842,5.261-.035,7c-8.815.214-16.172,4.413-23.373,9.5s-13.9,11-21.808,14.9a50.322,50.322,0,0,1-32.121,4.148c-3.38-.693-6.036-.471-9.063-2.476a2.641,2.641,0,0,0-.831-.418,2.027,2.027,0,0,0-2.094,1.333c-.777,1.7-.955,3.268-2.107,4.814-1.2,1.611-2.494,3.077-3.557,4.806a90.94,90.94,0,0,0-4.435,8.12c-.514,1.067-.959,2.478-.123,3.317.777.781,2.11.458,3.073-.076,5.524-3.068,7.215-10.286,12.859-13.243a4.084,4.084,0,0,1,4.036-.056c1.661,1.074,1.848,3.392,1.861,5.374q.032,5.184.067,10.37a7,7,0,0,0,.865,4.067c.816,1.149,2.726,1.607,3.616.518a3.4,3.4,0,0,0,.581-1.7,63,63,0,0,0,.611-6.831c.1-2.767.057-5.707,1.51-8.063s5.09-3.583,7.021-1.6a5.177,5.177,0,0,1,1.16,2.215c1.408,4.9-.61,10.678,2.163,14.95a2.439,2.439,0,0,0,.972.952,1.954,1.954,0,0,0,2.322-.934,5.235,5.235,0,0,0,.541-2.649,41.15,41.15,0,0,0-.812-8.747,17.448,17.448,0,0,1-.64-5.675c.252-1.9,1.511-3.824,3.4-4.142,2.229-.376,4.158,1.533,5.419,3.409a29.119,29.119,0,0,1,3.83,8.253c.824,2.893,1.374,6.2,3.8,7.981a2.8,2.8,0,0,0,3.013.437,3.211,3.211,0,0,0,1.2-2.463c.77-6.493-3.548-12.764-2.884-19.269.181-1.77,1.313-3.9,3.072-3.631a3.418,3.418,0,0,1,1.994,1.432c2.8,3.505,4.01,8.071,6.805,11.579a7.846,7.846,0,0,0,3.574,2.742,3.964,3.964,0,0,0,4.2-.979c1.119-1.331.913-3.378.079-4.905a23.586,23.586,0,0,0-3.322-4,19.549,19.549,0,0,1-4.117-7.551,7.211,7.211,0,0,1-.122-4.435,3.259,3.259,0,0,1,3.486-2.225c1.4.307,2.235,1.718,2.822,3.025a35.775,35.775,0,0,1,2.508,8.008c.42,2.23,1.224,5.093,3.489,5.219a3.179,3.179,0,0,0,2.9-2.064,7.6,7.6,0,0,0,.336-3.736,27.134,27.134,0,0,0-2.5-8.921,15.8,15.8,0,0,1-1.777-4.569c-.216-1.628.419-3.516,1.932-4.155a3.794,3.794,0,0,1,4.258,1.512,11.751,11.751,0,0,1,1.709,4.522q.975,4.209,2.222,8.354a4.321,4.321,0,0,0,1.485,2.534c1.333.862,3.236-.052,3.964-1.463a7.982,7.982,0,0,0,.4-4.668,67.685,67.685,0,0,0-2.235-10.644c-.52-1.756-1.064-3.816.034-5.281,1.377-1.837,4.551-1.21,5.861.674,1.788,2.57.746,7.637,1.028,10.682a81.309,81.309,0,0,0,2.247,13.662c1.8,6.671,5.006,13.134,10.16,17.736a10.977,10.977,0,0,1,3.083,3.458,6.536,6.536,0,0,1-.7,5.753,38.95,38.95,0,0,1-3.713,4.723c-3.451,4.282-5.46,10.265-3.368,15.352a2.326,2.326,0,0,0,.98,1.281c1.193.594,2.372-.8,2.98-1.991l5.573-10.889c1.142-2.231,2.452-4.623,4.745-5.626,2.6-1.136,5.618-.115,8.163,1.145a45.108,45.108,0,0,1,8.4,5.384c2.231,1.808,4.366,3.874,7.075,4.827,2.748.965,7.786.343,6.244-3.681-.942-2.465-4.457-3.644-6.43-5.082-3.846-2.8-7.747-5.547-11.545-8.415-2.387-1.738-4.837-3.546-6.387-6.062-1.532-2.487-2.051-5.447-2.541-8.328-1.121-6.577-2.3-13.277-5.414-19.177-2.816-5.334-7.271-10.255-7.37-16.287a2.867,2.867,0,0,1,.431-1.816,2.235,2.235,0,0,1,3.1-.049,6.5,6.5,0,0,1,1.684,2.975l3.733,10.684c.422,1.208,1.268,2.678,2.523,2.428,1.208-.242,1.476-1.84,1.388-3.07a27.557,27.557,0,0,0-2.288-9.171c-.54-1.22-.687-3.277.648-3.277.684,0,1.149.68,1.441,1.3,2.375,5.041,1.6,11.055,3.564,16.272a4.78,4.78,0,0,0,1.74,2.493,2.033,2.033,0,0,0,2.749-.43,2.965,2.965,0,0,0,.256-1.713,56.483,56.483,0,0,0-1.612-10.607,9.664,9.664,0,0,1-.464-4.3c.3-1.424,1.606-2.758,3.044-2.527,1.4.227,2.184,1.71,2.691,3.039a47.144,47.144,0,0,1,2.46,9.13c.348,2.115.571,4.318,1.644,6.177s3.293,3.266,5.337,2.619c.54-2.985-.92-5.92-2.162-8.688a70.3,70.3,0,0,1-2.563-6.565c-.566-1.7-1.043-3.665-.119-5.2,1.384-2.3,5.185-1.88,6.852.223s1.686,5.07,1.228,7.716-1.313,5.271-1.113,7.948c.08,1.049.48,2.264,1.49,2.553,1.2.344,2.269-.86,2.749-2.009,2.122-5.079-.436-10.784-.758-16.28a4.447,4.447,0,0,1,.68-3.1c1.119-1.374,3.423-1.111,4.766.045a11.185,11.185,0,0,1,2.646,4.547,22.165,22.165,0,0,0,4.792,7.9c2.232,2.154,5.439,3.5,8.469,2.843a2,2,0,0,0,1.32-.741,1.876,1.876,0,0,0,.187-1.236c-.33-2.692-2.7-4.574-4.424-6.669a16.129,16.129,0,0,1-2.967-5.51c-.691-2.245-.432-5.374,1.818-6.049,1.534-.462,3.177.618,3.979,2.006a16.089,16.089,0,0,1,1.359,4.592c.952,4.169,3.643,8.412,7.833,9.254a2.53,2.53,0,0,0,1.9-.2,2.63,2.63,0,0,0,.709-2.741c-1-5.119-6.459-9.1-5.745-14.272a9.986,9.986,0,0,1,3.083-5.42,6.7,6.7,0,0,1,3.029-1.988c2.295-.565,4.651,1.081,5.779,3.158s1.364,4.5,1.773,6.825,1.092,4.761,2.843,6.346a2.81,2.81,0,0,0,2.611.837c1.637-.53,1.615-2.832,1.247-4.512q-2.178-9.967-5.134-19.742a4.361,4.361,0,0,0-.568-1.322c-1.3-1.78-4.084-.706-5.958.456a117.677,117.677,0,0,1-32.693,13.929,81,81,0,0,1-16.087,2.861c-5.318.25-10.445-1.819-15.763-1.679a38.041,38.041,0,0,0-5.447.671c-2.39.411-4.654,1.379-6.768-.1a6.34,6.34,0,0,1-2.45-5.41" transform="translate(0 -14.45)" fill="#b47a2b"/>
    </g>
    <g id="Group_834" data-name="Group 834" transform="translate(485.931 -143.245)">
      <g id="Group_833" data-name="Group 833" transform="translate(277.069 360.245)">
        <path id="Path_10164" data-name="Path 10164" d="M277.071,385.175c-.105,7.535,3.279,14.885,8.414,20.3,7.2,7.586,21.148,8.835,31.189,8.918,2.091.016,2.03-2.911.26-3.452-10.436-3.172-16.871-13.684-17.889-24.2-1.053-10.861,6.331-17.25,14.8-22.191a1.409,1.409,0,0,0,1.113-.666c1.577-1.1.071-3.54-1.675-2.988C298.54,357.15,277.282,370.164,277.071,385.175Zm18.741,3.726a33.577,33.577,0,0,0,9.775,19.247.968.968,0,0,1-.817,1.668c-5.166-.9-12.2-2.516-15.412-5.423a26.653,26.653,0,0,1-8.742-17.333c-.793-11.549,14-22.26,25.762-23.229a.652.652,0,0,1,.426,1.177c-7.642,5.708-12.669,13.181-10.995,23.892Z" transform="translate(-277.069 -360.245)" fill="#9e3e22"/>
      </g>
    </g>
  </g>
</svg>
