<svg xmlns="http://www.w3.org/2000/svg" width="328.732" height="232.5" viewBox="0 0 328.732 232.5">
  <g id="Group_96" data-name="Group 96" transform="translate(-733.435 -271)">
    <g id="Group_879" data-name="Group 879" transform="translate(733.435 271)">
      <path id="Path_10165" data-name="Path 10165" d="M145.418,293.694c.072-1.461-.312-3.122-1.576-3.862-1.687-.989-3.9.29-4.889,1.979s-1.233,3.71-2.059,5.484c-1.3,2.779-3.871,4.693-6.231,6.65-4.309,3.568-8.274,7.727-10.655,12.791-.518,1.1-.892,2.565,0,3.391a2.642,2.642,0,0,0,2.272.4c3.324-.593,5.988-3.069,8.108-5.7s3.948-5.556,6.583-7.668c1.745,2.727,1.654,6.191,1.616,9.43a141.714,141.714,0,0,0,3.1,31.2c.763,3.565,1.638,7.388.218,10.742-1.044,2.46-3.168,4.259-5.061,6.148a44.021,44.021,0,0,0-7.325,9.671,9.362,9.362,0,0,0-1.42,4,3.72,3.72,0,0,0,1.861,3.588,3.782,3.782,0,0,0,3.7-.564,11.117,11.117,0,0,0,2.556-2.954l8.463-12.485c1.521-2.24,3.379-4.7,6.069-4.988,2.854-.309,5.332,2,6.848,4.439s2.59,5.252,4.774,7.119c.929.792,2.333,1.371,3.324.658a2.6,2.6,0,0,0,.837-1.2c1.193-3-.126-6.46-2.1-9.019a18.942,18.942,0,0,0-4.989-4.5c-2.14-1.332-4.559-2.243-6.477-3.881a14.931,14.931,0,0,1-4.521-8.311,57.664,57.664,0,0,1-.864-9.58,130.855,130.855,0,0,0-3.331-23.875,5.018,5.018,0,0,1-.183-2.285,1.685,1.685,0,0,1,1.61-1.387c.748.064,1.252.767,1.669,1.392a42.355,42.355,0,0,0,8.138,9.054c1.13.942,2.846,1.824,3.945.848a2.88,2.88,0,0,0,.754-2.009c.278-3.972-1.494-7.87-4.042-10.927a23.142,23.142,0,0,0-8.3-6.482c-3.435-1.536-2.576-3.969-2.413-7.312" transform="translate(-88.412 -249.174)" fill="#b47a2b"/>
      <path id="Path_10166" data-name="Path 10166" d="M370.7,268.483q3.089,9.887,5.87,19.868a10.838,10.838,0,0,1,.578,3.667,9.682,9.682,0,0,1-1.567,4.121c-2.154,3.638-4.869,6.972-6.473,10.884a21.486,21.486,0,0,0-1.545,9.712c.14,1.867,1.077,4.189,2.948,4.113,1.217-.049,2.1-1.149,2.747-2.176a34.4,34.4,0,0,0,3.681-7.894c.737-2.3,1.231-4.673,2.156-6.9a10.857,10.857,0,0,1,4.467-5.516,5.9,5.9,0,0,1,6.742.51c2.014,1.9,2.215,5.43,4.662,6.723a3.761,3.761,0,0,0,5.242-3.2,6.184,6.184,0,0,0-1.775-3.756c-4.284-5.031-10.862-8-14.175-13.72-1.9-3.268-2.512-7.094-3.274-10.794a59.608,59.608,0,0,0-3.105-10.708c-1.526-3.69-3.617-7.181-4.522-11.066-.221-.955-.256-2.193.6-2.672a2.339,2.339,0,0,1,2.312.466c2.268,1.5,4.222,3.533,6.749,4.529a2.605,2.605,0,0,0,3.816-1.734c1.12-2.572.474-6.235-2.169-7.176a7.368,7.368,0,0,0-2.393-.29l-6.925-.071a11.029,11.029,0,0,1-4.5-.678c-4.319-1.973-4.592-8.48-8.583-11.053a3.463,3.463,0,0,0-2.333-.634c-1.8.269-2.656,2.487-2.37,4.282s1.325,3.378,1.856,5.115c2.25,7.372-4.924,15.022-3.155,22.524.423,1.8,1.826,3.724,3.659,3.471a3.334,3.334,0,0,0,2.489-2.512,16.665,16.665,0,0,0,.355-3.717c.1-1.735.474-5.373,2.054-6.335,3.229,3.063,4.6,8.5,5.884,12.621" transform="translate(-156.061 -233.023)" fill="#b47a2b"/>
      <path id="Path_10167" data-name="Path 10167" d="M448.06,413.661c-3.833,5.915-7.622,12.9-5.659,19.673a2.482,2.482,0,0,0,1.016,1.583c.957.518,2.093-.243,2.851-1.025,5.671-5.812,7.15-14.426,11-21.577a2.453,2.453,0,0,1,.9-1.077c1.314-.7,2.5,1.112,2.911,2.542L475.2,463.692c1.729,6.11,3.448,12.7,1.308,18.682-2.225,6.219-8.3,10.665-9.752,17.108a3.082,3.082,0,0,0,.383,2.792c1.09,1.182,3.053.351,4.334-.619,5.512-4.168,9.671-9.866,13.29-15.751,1.7-2.772,3.9-5.968,7.157-5.965a11.268,11.268,0,0,1,3.025.627,26.016,26.016,0,0,0,11.029.68A4.36,4.36,0,0,0,508.9,479.9c1.217-1.609-.172-4.047-2.025-4.847s-3.965-.6-5.959-.906A15.357,15.357,0,0,1,492,468.813a41.279,41.279,0,0,1-5.566-8.986,279.253,279.253,0,0,1-19.155-49.935,1.944,1.944,0,0,1-.075-1.188c.27-.733,1.249-.865,2.026-.762,5.273.683,8.522,6,13.055,8.785,1.865,1.144,4.424,1.8,6.139.443,1.528-1.214,1.663-3.611.773-5.347a10.4,10.4,0,0,0-4.241-3.916c-7.551-4.429-16.8-6.182-23.021-12.343-1.39-1.378-3.815-3.888-5.892-2.017-1.324,1.189-.79,3.761-1.034,5.351-.82,5.447-4.022,10.24-6.955,14.766" transform="translate(-180.628 -278.748)" fill="#b47a2b"/>
      <path id="Path_10168" data-name="Path 10168" d="M373.729,434.686c-.935-1.649-2.736-3.062-4.59-2.673-1.736.368-2.82,2.184-3.093,3.935a38.938,38.938,0,0,0,.026,5.32c-.158,9.68-10.53,17-10.421,26.681.014,1.287.425,2.82,1.654,3.194,1.45.441,2.707-1.043,3.5-2.333l8.391-13.652c.333-.545.781-1.152,1.421-1.14.69.009,1.127.727,1.4,1.359,2.959,6.9,2.937,14.667,4.475,22.011,1.286,6.149,3.693,12.44,2.127,18.524-1.1,4.283-4.038,7.809-6.66,11.372s-5.092,7.6-5.011,12.02a3.679,3.679,0,0,0,.617,2.24c1.152,1.462,3.516.879,5.068-.15,3.371-2.24,5.605-5.85,7.169-9.579s2.571-7.677,4.107-11.422c.777-1.9,1.9-3.929,3.862-4.532,2.685-.824,5.254,1.4,7.273,3.355a89.252,89.252,0,0,0,7.135,6.189,5.346,5.346,0,0,0,2.265,1.22c2.281.4,4.109-2.346,3.7-4.625s-2.23-4.012-4.018-5.487c-5.221-4.3-11.027-7.873-16.046-12.409a17.083,17.083,0,0,1-3.913-4.669,20.225,20.225,0,0,1-1.531-4.8L377.477,452.1a1.025,1.025,0,0,1,0-.662.872.872,0,0,1,.62-.4c1.563-.364,3.083.648,4.372,1.608q3.744,2.79,7.489,5.577a3.06,3.06,0,0,0,2.108.853,2.05,2.05,0,0,0,1.56-2.11,5.255,5.255,0,0,0-1-2.653c-2.407-3.832-5.857-7.687-10.238-9.117-5.687-1.856-6.014-5.85-8.655-10.518" transform="translate(-155.968 -289.923)" fill="#b47a2b"/>
      <path id="Path_10169" data-name="Path 10169" d="M228.865,332.731c-.019-3.212.437-6.588-.892-9.511-2.006-4.422-7.284-6.191-12.047-7.134-6.128-1.213-12.439-1.851-18.228-4.2s-11.159-6.827-12.584-12.911a18.6,18.6,0,0,1,.525-9.427A26.287,26.287,0,0,1,202.6,272.024a23.853,23.853,0,0,1,23.506,5.614,21.853,21.853,0,0,1,4.663,23.467,30.874,30.874,0,0,0-2.083,5,5.251,5.251,0,0,0,1.132,5.052,4.73,4.73,0,0,0,5.037.556,10.187,10.187,0,0,0,3.93-3.562c3.468-4.824,5.145-10.742,5.745-16.652a23.656,23.656,0,0,0-.481-8.884,20.3,20.3,0,0,0-4.844-8.086c-8.842-9.49-23.083-12.221-35.937-10.486a36.675,36.675,0,0,0-10.124,2.661c-5.609,2.514-10.14,6.975-13.855,11.874a28.531,28.531,0,0,0-4.681,8.334c-2.106,6.554-.353,13.678,1.8,20.217a29.755,29.755,0,0,0,3.865,8.405c3.212,4.4,8.359,6.869,13.292,9.171q4.738,2.214,9.476,4.424c3.143,1.466,6.416,3.036,8.5,5.809s2.5,7.131-.048,9.487c-11.95.291-21.922,5.982-31.683,12.883s-18.846,14.909-29.562,20.2a68.213,68.213,0,0,1-43.541,5.622c-4.582-.939-8.182-.639-12.285-3.356a3.579,3.579,0,0,0-1.126-.567,2.747,2.747,0,0,0-2.839,1.806c-1.053,2.3-1.3,4.43-2.856,6.525-1.623,2.184-3.381,4.172-4.822,6.514a123.256,123.256,0,0,0-6.012,11.006c-.7,1.446-1.3,3.358-.166,4.5,1.054,1.059,2.86.621,4.165-.1,7.488-4.159,9.78-13.943,17.431-17.951a5.536,5.536,0,0,1,5.47-.076c2.251,1.456,2.5,4.6,2.523,7.285q.044,7.028.091,14.056c.014,1.908.066,3.955,1.172,5.513s3.695,2.179,4.9.7a4.6,4.6,0,0,0,.787-2.31,85.4,85.4,0,0,0,.828-9.26c.131-3.751.077-7.736,2.047-10.929s6.9-4.857,9.517-2.168a7.018,7.018,0,0,1,1.572,3c1.909,6.637-.827,14.475,2.932,20.266a3.307,3.307,0,0,0,1.318,1.29,2.649,2.649,0,0,0,3.147-1.267,7.1,7.1,0,0,0,.734-3.591,55.782,55.782,0,0,0-1.1-11.857c-.512-2.542-1.208-5.122-.867-7.692s2.048-5.184,4.607-5.615c3.022-.51,5.636,2.078,7.346,4.622a39.472,39.472,0,0,1,5.192,11.187c1.117,3.921,1.863,8.4,5.146,10.818,1.176.865,2.843,1.359,4.085.593a4.352,4.352,0,0,0,1.629-3.339c1.044-8.8-4.809-17.3-3.91-26.12.245-2.4,1.779-5.29,4.164-4.922a4.633,4.633,0,0,1,2.7,1.941c3.795,4.751,5.435,10.94,9.225,15.7a10.635,10.635,0,0,0,4.844,3.717,5.373,5.373,0,0,0,5.688-1.327c1.516-1.8,1.237-4.579.107-6.649s-2.947-3.658-4.5-5.426a26.5,26.5,0,0,1-5.58-10.235,9.776,9.776,0,0,1-.165-6.012c.713-1.913,2.732-3.457,4.725-3.016,1.895.416,3.03,2.329,3.825,4.1a48.494,48.494,0,0,1,3.4,10.855c.569,3.022,1.659,6.9,4.729,7.075a4.309,4.309,0,0,0,3.929-2.8,10.3,10.3,0,0,0,.455-5.065,36.78,36.78,0,0,0-3.383-12.092c-.958-2.011-2.116-3.987-2.409-6.194s.568-4.766,2.619-5.632c2.027-.854,4.449.293,5.772,2.05a15.928,15.928,0,0,1,2.316,6.13q1.322,5.706,3.011,11.324a5.857,5.857,0,0,0,2.013,3.436c1.807,1.168,4.386-.071,5.374-1.983s.815-4.195.546-6.327a91.747,91.747,0,0,0-3.029-14.428c-.7-2.38-1.442-5.173.046-7.159,1.866-2.49,6.169-1.641,7.945.913,2.423,3.483,1.011,10.352,1.393,14.48a110.218,110.218,0,0,0,3.046,18.519c2.437,9.043,6.786,17.8,13.772,24.042,1.574,1.406,3.331,2.753,4.18,4.688,1.091,2.49.408,5.445-.95,7.8s-3.328,4.287-5.033,6.4c-4.679,5.8-7.4,13.915-4.565,20.811a3.153,3.153,0,0,0,1.329,1.736c1.617.805,3.215-1.09,4.039-2.7l7.554-14.761c1.549-3.024,3.324-6.267,6.432-7.626,3.528-1.54,7.615-.156,11.065,1.551a61.143,61.143,0,0,1,11.381,7.3c3.024,2.451,5.919,5.251,9.591,6.543,3.725,1.309,10.554.465,8.464-4.989-1.277-3.341-6.042-4.939-8.716-6.889-5.214-3.8-10.5-7.519-15.649-11.407-3.236-2.356-6.556-4.807-8.658-8.218-2.076-3.371-2.78-7.384-3.445-11.289-1.52-8.916-3.116-18-7.339-25.995-3.818-7.23-9.856-13.9-9.99-22.077a3.886,3.886,0,0,1,.585-2.461c.952-1.241,3-1.071,4.2-.067a8.806,8.806,0,0,1,2.283,4.032l5.06,14.483c.572,1.638,1.719,3.63,3.42,3.291,1.638-.328,2-2.495,1.881-4.162a37.354,37.354,0,0,0-3.1-12.432c-.733-1.654-.932-4.442.879-4.442.927,0,1.557.922,1.953,1.759,3.22,6.833,2.173,14.986,4.831,22.057a6.479,6.479,0,0,0,2.358,3.379,2.756,2.756,0,0,0,3.726-.583,4.02,4.02,0,0,0,.347-2.322,76.563,76.563,0,0,0-2.185-14.379c-.48-1.913-1.037-3.9-.629-5.829s2.178-3.738,4.127-3.426c1.9.308,2.96,2.318,3.648,4.119a63.907,63.907,0,0,1,3.335,12.377c.472,2.867.775,5.853,2.229,8.373s4.464,4.427,7.235,3.55c.732-4.046-1.247-8.024-2.93-11.778a95.3,95.3,0,0,1-3.474-8.9c-.768-2.305-1.414-4.968-.161-7.05,1.876-3.119,7.029-2.549,9.289.3s2.285,6.873,1.664,10.459-1.78,7.145-1.509,10.774c.109,1.422.65,3.069,2.02,3.461,1.623.467,3.076-1.165,3.726-2.723,2.877-6.885-.59-14.618-1.027-22.069a6.028,6.028,0,0,1,.922-4.207c1.517-1.863,4.639-1.507,6.46.061s2.693,3.935,3.587,6.164c1.566,3.9,3.47,7.782,6.5,10.7s7.373,4.749,11.481,3.854a2.71,2.71,0,0,0,1.79-1,2.543,2.543,0,0,0,.254-1.675c-.448-3.65-3.657-6.2-6-9.039a21.863,21.863,0,0,1-4.022-7.47c-.936-3.044-.586-7.285,2.464-8.2,2.08-.626,4.306.838,5.393,2.719s1.359,4.105,1.842,6.225c1.29,5.651,4.938,11.4,10.618,12.544a3.43,3.43,0,0,0,2.572-.276c1.13-.751,1.221-2.38.961-3.716-1.358-6.939-8.756-12.34-7.788-19.346.391-2.84,2.166-5.306,4.179-7.347a9.086,9.086,0,0,1,4.106-2.7c3.111-.766,6.3,1.465,7.834,4.28s1.848,6.1,2.4,9.251,1.481,6.454,3.853,8.6a3.809,3.809,0,0,0,3.54,1.134c2.219-.718,2.19-3.838,1.69-6.116q-2.953-13.511-6.959-26.761a5.911,5.911,0,0,0-.77-1.791c-1.761-2.413-5.536-.957-8.076.618A159.518,159.518,0,0,1,291.92,337.7c-7.069,1.82-14.513,3.534-21.807,3.878-7.209.339-14.159-2.465-21.368-2.275a51.568,51.568,0,0,0-7.383.91c-3.239.557-6.309,1.87-9.174-.131-2.424-1.691-3.3-4.481-3.321-7.334" transform="translate(-75.969 -241.756)" fill="#b47a2b"/>
    </g>
  </g>
</svg>
