<svg xmlns="http://www.w3.org/2000/svg" width="91.004" height="79.462" viewBox="0 0 91.004 79.462">
  <g id="Group_869" data-name="Group 869" transform="translate(-243.044 -340.922)">
    <g id="Group_860" data-name="Group 860" transform="translate(265.778 402.99)">
      <path id="Path_10180" data-name="Path 10180" d="M274.681,431.72c5.3,1.355,8.471-.46,11.237-4.424-.343,5.08,2.519,8.265,6.5,12.1-3.729.106-6.373-.428-8.469.417-2.026.818-3.482,3.048-5.7,4.478.656-4.71-.07-8.79-3.572-12.571" transform="translate(-274.681 -427.296)" fill="#3f656a"/>
    </g>
    <g id="Group_863" data-name="Group 863" transform="translate(282.519 349.192)">
      <path id="Path_10180-2" data-name="Path 10180-2" d="M308.923,352.431c-1.9,4.2-.856,7.091,2.021,9.961-4.159-1.026-7.223.88-10.98,3.62.454-3.108,1.288-5.22.893-7.079-.382-1.8-2.017-3.331-2.879-5.38,3.809,1.233,7.294,1.229,10.946-1.122" transform="translate(-297.977 -352.431)" fill="#00343b"/>
    </g>
    <g id="Group_867" data-name="Group 867" transform="translate(304.336 407.806)">
      <path id="Path_10180-3" data-name="Path 10180-3" d="M335.231,439.78c-2.152-1.113-3.7-.645-5.292.79.653-2.157-.262-3.818-1.6-5.872,1.62.326,2.71.818,3.7.664.956-.151,1.8-.969,2.907-1.365a6.281,6.281,0,0,0,.291,5.783" transform="translate(-328.337 -433.997)" fill="#3f656a"/>
    </g>
    <g id="Group_861" data-name="Group 861" transform="translate(250.226 375.069)">
      <path id="Path_10180-4" data-name="Path 10180-4" d="M270.911,400.948c-5.32-1.261-8.462.609-11.158,4.62.255-5.086-2.663-8.22-6.714-11.985,3.727-.171,6.38.316,8.46-.564,2.011-.853,3.428-3.108,5.621-4.577-.573,4.721.223,8.787,3.791,12.507" transform="translate(-253.039 -388.441)" fill="#3f656a"/>
    </g>
    <g id="Group_864" data-name="Group 864" transform="translate(243.044 411.789)">
      <path id="Path_10180-5" data-name="Path 10180-5" d="M243.044,442.319c2.619.338,4.033-.718,5.125-2.779.134,2.453,1.693,3.813,3.825,5.416-1.781.269-3.079.17-4.032.7-.923.51-1.49,1.664-2.47,2.483a6.844,6.844,0,0,0-2.448-5.816" transform="translate(-243.044 -439.54)" fill="#3f656a"/>
    </g>
    <g id="Group_865" data-name="Group 865" transform="translate(325.097 372.382)">
      <path id="Path_10180-6" data-name="Path 10180-6" d="M357.229,387.481c2.619.338,4.033-.719,5.126-2.78.134,2.453,1.692,3.813,3.824,5.417-1.78.269-3.079.169-4.032.7-.923.51-1.49,1.664-2.469,2.483a6.845,6.845,0,0,0-2.449-5.816" transform="translate(-357.229 -384.701)" fill="#3f656a"/>
    </g>
    <g id="Group_866" data-name="Group 866" transform="translate(320.699 340.922)">
      <path id="Path_10180-7" data-name="Path 10180-7" d="M358.4,342.251c-1.778,1.95-1.723,3.714-.661,5.791-2.085-1.3-4.093-.8-6.629.028.8-1.613,1.627-2.619,1.742-3.7.111-1.048-.51-2.174-.619-3.446a6.844,6.844,0,0,0,6.168,1.329" transform="translate(-351.109 -340.922)" fill="#00343b"/>
    </g>
    <g id="Group_862" data-name="Group 862" transform="translate(282.64 369.623)">
      <path id="Path_10180-8" data-name="Path 10180-8" d="M304.291,407.5c2.348-8-.253-12.939-6.145-17.366,7.721.793,12.734-3.4,18.791-9.271-.036,5.688-.99,9.691.185,12.928,1.14,3.129,4.46,5.471,6.524,8.929-7.149-1.246-13.4-.359-19.355,4.782" transform="translate(-298.146 -380.862)" fill="#3f656a"/>
    </g>
  </g>
</svg>
